<?xml version="1.0" encoding="utf-8"?>
<svg version="1.1" id="Layer_1" x="0px" y="0px" width="1045.5px" height="817.676px" viewBox="0 0 1045.5 817.676" enable-background="new 0 0 1045.5 817.676" xmlns="http://www.w3.org/2000/svg">
  <defs/>
  <path fill="#808285" stroke="#000000" stroke-width="1.4" stroke-miterlimit="10" d="M951.5,621.64"/>
  <path fill="blue" data-riding="Lac-Saint-Louis" d="M 246.836 645.258 C 262.248 634.397 275.865 624.803 289.295 615.275 C 294.634 611.538 299.323 607.163 307.082 610.932 C 309.311 612.167 313.834 609.811 317.05 608.223 C 324.055 604.593 330.814 600.463 338.233 596.255 C 347.366 604.721 353.105 614.776 359.942 624.489 C 353.771 634.752 352.703 644.591 362.985 653.185 C 367.635 657.102 366.801 662.083 364.76 667.403 C 358.648 668.195 352.33 668.656 346.219 669.99 C 338.901 671.532 335.064 676.329 334.837 683.835 C 334.63 688.09 334.69 692.3 334.69 697.137 C 330.54 698.598 327.311 700.413 323.828 700.914 C 316.256 701.788 310.397 704.897 304.915 710.214 C 299.824 715.112 293.425 718.973 287.108 722.164 C 279.013 726.227 270.462 727.501 262.022 722.91 C 248.552 715.699 236.956 718.927 225.968 728.208 C 222.104 731.504 218.482 735.593 213.852 737.341 C 202.983 741.619 196.204 749.438 192.083 761.132 C 186.658 761.132 181.714 761.721 176.898 761.013 C 165.202 759.237 155.167 761.886 147.181 770.54 C 141.244 777.025 133.711 779.005 125.605 778.734 C 117.346 778.425 110.086 779.967 103.729 785.991 C 99.559 789.916 94.155 788.746 89.483 785.864 C 87.149 784.53 84.106 782.742 83.039 780.234 C 77.388 767.497 67.341 764.39 53.851 768.097 C 48.199 755.108 35.563 746.995 34.536 732.003 C 34.369 729.63 31.492 727.293 29.887 724.873 C 22.466 713.157 23.761 704.623 34.496 694.89 C 40.333 689.571 45.53 684.021 53.724 681.418 C 58.601 679.891 62.171 674.1 66.84 669.737 C 71.696 671.238 76.975 673.66 82.392 674.454 C 89.297 675.308 94.908 667.195 91.592 661.024 C 89.337 656.707 85.648 652.952 82.252 649.301 C 77.955 644.758 74.679 639.481 77.743 633.729 C 82.017 625.697 80.998 617.524 79.917 608.517 C 89.15 609.037 96.969 609.459 104.856 609.932 C 107.458 612.979 109.839 615.648 112.107 618.484 C 123.702 632.828 137.174 636.291 153.919 628.412 C 159.738 625.617 166.222 622.762 170.499 618.319 C 177.652 610.852 185.03 605.408 195.017 601.799 C 200.109 599.825 203.236 592.458 208.034 586.541 C 210.182 589.102 213.058 591.791 215.265 595.087 C 225.42 610.831 235.307 626.824 246.836 645.258 Z" style=""/>
  <path fill="blue" data-riding="La Pointe-de-l'Ile" d="M 753.055 198.553 C 782.878 177.39 811.065 157.348 839.112 137.48 C 842.535 129.347 840.947 121.254 839.447 113.623 C 837.218 101.592 838.986 90.664 844.744 80.177 C 847.853 74.526 849.954 68.206 852.816 62.37 C 856.753 53.776 859.756 44.956 856.839 34.821 C 868.203 27.583 878.67 20.203 889.764 13.946 C 900.086 8.216 908.865 14.052 907.845 26.042 C 907.404 31.506 905.297 37.471 902.194 41.973 C 893.975 53.776 890.558 66.826 889.244 80.678 C 888.705 85.72 887.971 90.664 887.323 95.795 C 884.76 111.873 884.988 127.759 891.685 142.731 C 900.96 163.567 896.309 182.267 884.76 200.308 C 881.299 205.899 877.375 211.129 873.892 216.553 C 871.624 220.223 869.162 223.932 867.767 227.935 C 862.825 242.287 858.635 256.983 853.437 271.16 C 848.666 284.385 852.122 295.267 861.529 304.78 C 878.463 321.96 878.523 325.816 861.569 343.377 C 859.609 345.377 857.133 346.84 853.917 349.254 C 843.262 343.103 832.735 336.972 821.033 330.179 C 818.03 331.967 814.694 334.762 811.045 335.851 C 808.102 336.851 804.628 335.496 800.184 335.183 C 801.978 326.837 803.478 319.939 805.228 311.678 C 800.703 309.383 795.779 306.902 790.884 304.32 C 786.086 291.284 795.7 288.307 806.021 284.992 C 802.785 277.105 799.783 269.994 796.534 262.133 C 798.635 260.112 800.744 258.378 802.745 256.484 C 810.731 248.624 811.004 238.737 802.539 232.624 C 792.009 224.953 780.769 218.242 769.967 210.922 C 764.609 207.539 759.646 203.516 753.055 198.553 Z" style=""/>
  <path fill="blue" data-riding="Dorval—Lachine—LaSalle" d="M 666.583 661.417 C 669.252 664.466 672.086 667.716 675.716 672.032 C 672.833 675.955 670.204 679.25 668.183 682.752 C 666.034 686.383 662.719 690.299 662.953 694.055 C 663.619 704.042 658.595 710.275 652.085 716.365 C 645.706 722.203 638.7 727.833 640.809 738.008 C 635.612 743.893 630.4 749.791 624.956 755.862 C 618.726 757.776 613.243 755.63 610.38 750.191 C 602.246 735.446 587.941 727.941 575.266 718.408 C 569.241 713.737 561.042 711.402 553.409 709.627 C 544.283 707.459 534.788 706.818 525.407 706.379 C 515.187 705.79 505.18 704.503 495.819 700.353 C 484.744 695.43 473.695 693.802 462.227 699.058 C 458.531 700.687 453.38 701.562 449.63 700.353 C 439.015 696.97 428.488 695.951 417.6 697.137 C 413.597 697.578 409.006 695.99 405.003 694.301 C 395.811 690.386 386.656 686.002 376.768 681.372 C 372.599 674.741 375.748 666.508 374.934 658.788 C 374.454 654.519 374.287 650.683 371.018 646.906 C 364.505 639.335 364.84 638.853 372.873 628.412 C 364.927 616.523 356.734 604.114 347.766 590.791 C 356.98 585.08 364.799 579.93 372.832 575.319 C 377.082 572.757 381.606 570.709 386.009 568.46 C 389.785 575.633 389.785 575.633 375.876 592.692 C 388.992 612.313 397.89 635.664 422.357 648.388 C 424.711 646.7 428.401 644.611 431.471 641.882 C 441.871 631.809 451.878 621.4 462.307 611.166 C 465.349 608.223 468.879 605.829 472.902 602.759 C 485.831 615.356 498.321 627.451 511.457 640.194 C 516.522 636.732 521.152 633.643 526.429 630.06 C 529.665 632.975 532.686 635.711 536.21 638.96 C 533.266 645.465 530.599 651.163 528.116 656.687 C 549.6 674.996 554.204 677.976 584.96 661.838 C 592.072 665.174 596.535 672.013 602.293 677.249 C 608.232 682.519 614.008 688.072 620.493 694.035 C 636.906 685.482 648.816 671.198 666.583 661.417 Z" style=""/>
  <path fill="blue" data-riding="Saint-Laurent" d="M 465.229 507.468 C 463.934 502.463 463.161 499.667 462.179 495.185 C 465.916 491.468 470.294 487.151 474.884 482.568 C 482.496 486.031 489.02 489.072 497.007 492.575 C 515.355 484.295 534.436 475.643 554.556 466.616 C 566.945 471.247 579.542 476.036 593.22 481.147 C 588.444 500.102 581.752 517.201 571.577 531.692 C 561.334 546.356 546.845 558.033 533.648 571.689 C 538.525 577.761 542.941 583.265 547.992 589.477 C 545.569 601.199 543.068 613.227 540.359 626.345 C 534.707 623.048 530.499 620.545 525.761 617.711 C 521.819 620.545 517.648 623.362 513.666 626.217 C 512.291 625.843 510.477 626.217 509.683 625.429 C 502.783 618.918 496.066 612.393 489.247 605.849 C 484.076 600.992 478.845 595.92 473.176 590.477 C 454.154 603.926 441.077 622.694 423.605 636.104 C 403.189 628.265 397.978 609.351 388.218 592.832 C 392.62 587.288 397.058 581.804 401.754 575.739 C 397.351 565.744 393.074 555.992 388.718 546.103 C 396.103 539.972 401.42 548.064 409.261 547.191 C 426.606 534.554 445.561 521.311 465.229 507.468 Z" style=""/>
  <path fill="blue" data-riding="Honore-Mercier" d="M 754.308 311.639 C 744.322 306.968 747.255 297.06 741.792 288.613 C 735.954 285.679 728.409 281.382 720.504 278.046 C 708.767 273.102 698.9 265.451 691.56 255.483 C 678.963 237.969 667.563 219.489 655.754 201.789 C 659.03 192.341 665.474 187.399 671.833 182.688 C 697.439 163.899 720.648 141.443 750.473 128.825 C 755.663 126.658 760.748 123.09 764.503 118.832 C 772.929 109.346 783.184 102.672 794.493 97.542 C 814.988 88.222 825.516 72.29 827.063 50.167 C 827.144 48.754 827.063 47.165 827.252 45.83 C 827.538 44.415 827.852 42.915 828.539 40.179 C 832.461 37.843 837.318 34.99 843.597 31.192 C 845.058 33.38 846.557 35.114 847.412 37.089 C 849.807 42.748 849.435 48.124 846.785 53.882 C 842.408 63.017 838.699 72.564 834.276 81.676 C 830.066 90.458 828.272 99.277 830.066 109.037 C 831.38 116.043 831.5 123.382 832.233 131.054 C 801.577 154.913 768.906 174.802 737.808 199.266 C 757.871 216.201 780.374 226.62 798.389 241.572 C 799.516 253.088 786.693 249.978 784.231 258.985 C 786.312 263.594 788.922 269.413 791.484 275.065 C 787.028 283.237 782.623 291.143 777.66 300.043 C 773.89 300.483 768.506 299.688 764.257 301.671 C 760.146 303.567 757.457 308.303 754.308 311.639 Z" style=""/>
  <path fill="blue" data-riding="Pierrefonds—Dollard" d="M 405.838 536.389 C 400.186 534.762 394.829 533.321 388.759 531.551 C 384.968 534.762 381.34 538.057 377.17 541.621 C 378.836 547.417 380.358 552.82 382.252 559.287 C 360.11 572.444 338.086 584.911 316.649 598.384 C 310.145 602.365 305.748 597.736 298.99 597.696 C 283.791 608.411 267.958 619.671 250.839 631.622 C 236.642 616.316 228.468 597.862 216.833 579.93 C 221.272 576.88 225.234 574.238 229.116 571.295 C 240.751 562.995 242.273 557.511 236.869 543.454 C 235.575 540.159 234.16 536.949 232.953 534.095 C 235.036 525.942 238.498 519.663 245.817 516.868 C 253.701 513.824 258.726 507.967 262.561 500.502 C 266.479 501.791 269.174 502.356 271.695 503.544 C 284.646 509.694 297.529 512.236 311.479 506.085 C 319.512 502.544 327.017 504.438 332.583 512.117 C 339.3 521.417 349.055 524.293 359.59 521.625 C 372.185 518.369 384.195 522.606 396.371 523.126 C 403.354 523.233 405.278 526.922 405.838 536.389 Z M 152.478 511.823 C 152.145 517.388 150.144 522.312 144.7 523.626 C 137.241 525.354 134.339 530.004 132.543 536.784 C 131.924 539.265 129.501 542.433 127.272 543.248 C 112.067 548.624 103.876 564.624 87.169 567.893 C 79.938 569.314 78.034 576.152 80.477 583.766 C 81.145 585.827 82.105 587.708 82.852 589.856 C 85.02 595.961 88.942 599.424 95.842 598.824 C 106.023 597.902 113.655 603.16 120.574 610.057 C 136.172 625.884 142.844 625.176 161.698 611.353 C 163.467 610.057 165.762 609.184 166.868 607.476 C 171.6 600.425 177.898 596.735 185.932 594.36 C 189.472 593.292 193.31 589.229 194.685 585.64 C 198.02 576.819 204.171 571.542 212.118 567.333 C 220.79 562.622 225.273 555.157 221.69 545.69 C 218.208 536.509 219.522 529.13 224.94 521.391 C 228.99 515.64 228.324 508.881 225.321 502.711 C 224.153 500.435 221.69 497.313 219.542 497.059 C 208.928 495.411 197.4 491.683 187.786 494.264 C 177.004 497.186 166.496 495.223 153.606 497.894 C 153.104 503.338 152.645 507.587 152.478 511.823 Z" style=""/>
  <path fill="blue" data-riding="Ahuntsic-Cartierville" d="M 497.675 482.629 C 488.98 478.939 481.701 475.957 474.442 472.787 C 464.541 477.398 458.304 485.15 451.592 492.575 C 452.113 496.499 452.546 499.955 453.174 504.837 C 442.391 512.325 431.422 520.123 419.729 528.236 C 416.685 525.815 414.178 524.314 412.342 522.352 C 410.968 520.85 410.193 518.662 409.3 516.7 C 412.842 506.714 417.913 499.168 428.174 494.304 C 436.427 490.388 444.373 484.11 449.924 476.876 C 461.326 461.926 476.531 452.665 492.315 443.78 C 493.563 443.093 495.111 442.824 496.233 441.944 C 504.266 435.793 511.399 428.081 520.132 423.723 C 528.285 419.674 538.624 420.174 547.284 416.905 C 561.964 411.253 569.654 399.572 572.303 383.993 C 573.472 377.222 570.429 369.383 577.268 362.703 C 586.401 373.571 598.598 379.055 611.026 385.001 C 620.601 389.604 628.587 397.364 636.239 403.996 C 635.531 406.664 635.612 408.478 634.778 409.125 C 624.623 416.711 618.224 426.726 613.488 438.46 C 609.046 449.682 605.062 461.359 597.575 471.807 C 581.79 469.345 568.722 460.651 552.89 457.397 C 535.375 465.449 516.982 473.809 497.675 482.629 Z" style=""/>
  <path fill="blue" data-riding="Mount Royal" d="M 633.758 595.647 C 625.585 597.009 619.267 601.258 613.529 607.368 C 603.394 618.585 592.385 629.247 581.878 640.274 C 579.456 642.864 577.415 645.926 575.726 649.055 C 568.173 662.964 560.461 665.754 546.217 659.269 C 544.283 658.396 542.756 656.687 540.085 654.519 C 550.074 633.643 551.975 610.645 557.292 587.182 C 553.935 582.41 550.327 577.193 546.091 571.109 C 551.74 565.391 556.959 559.261 562.942 554.175 C 575.994 543.021 584.626 529.257 590.698 513.305 C 595.62 500.582 601.772 488.28 607.63 475.25 C 621.542 478.291 632.196 485.505 645.453 490.949 C 635.845 507.714 623.309 519.916 613.862 535.701 C 616.656 538.369 619.032 540.686 621.561 543.061 C 624.23 545.416 627.104 547.545 630.087 550.026 C 628.793 555.304 627.567 560.014 626.065 566.105 C 636.072 572.61 640.595 581.53 633.758 595.647 Z" style=""/>
  <path fill="blue" data-riding="Hochelaga" d="M 772.802 438.588 C 775.411 426.893 777.579 417.191 780.042 406.103 C 763.376 393.359 743.087 386.542 724.945 373.758 C 727.842 363.204 733.726 354.305 738.415 344.65 C 743.441 343.149 748.217 341.647 752.514 340.48 C 757.557 330.24 762.414 320.585 767.359 310.305 C 776.865 311.078 785.165 312.285 793.551 317.369 C 792.257 323.922 791.031 330.153 789.628 336.411 C 805.167 349.82 807.082 350.008 821.345 341.561 C 830.833 344.604 838.239 351.302 845.391 355.599 C 842.095 370.443 839.846 383.226 836.236 395.549 C 834.069 402.288 828.791 408.078 826.35 414.73 C 820.932 430.81 808.71 440.655 797.161 451.145 C 789.068 447.054 781.582 443.159 772.802 438.588 Z" style=""/>
  <path fill="blue" data-riding="Saint-Leonard—Saint-Michel" d="M 715.184 369.089 C 704.364 363.853 696.004 359.789 687.304 355.619 C 678.17 362.79 673.546 372.838 667.87 381.871 C 662.598 390.211 656.428 396.443 644.851 398.364 C 636.032 391.693 626.377 384.248 616.93 377.075 C 624.584 359.955 675.569 280.007 686.351 267.597 C 702.509 277.211 718.569 286.699 735.354 296.627 C 739.003 304.153 739.003 314.12 747.324 320.545 C 751.613 323.9 749.551 331.867 744.214 332.388 C 733.353 333.536 730.283 341.315 726.281 348.947 C 722.904 355.264 719.354 361.416 715.184 369.089 Z" style=""/>
  <path fill="blue" data-riding="LaSalle—Emard—Verdun" d="M 736.995 672.118 C 743.507 687.55 743.38 688.191 731.845 696.137 C 728.89 698.304 724.613 699.64 723.319 702.454 C 717.708 713.61 708.12 719.034 697.672 724.293 C 693.623 726.392 690.166 731.443 688.412 735.947 C 682.7 750.712 671.293 754.441 656.969 753.626 C 653.379 753.381 649.816 753.193 644.932 752.794 C 647.1 744.306 658.116 739.637 653.419 729.982 C 656.694 726.126 660.137 722.457 663.12 718.367 C 666.161 714.425 671.065 709.861 670.705 705.839 C 669.477 693.115 677.216 685.735 684.743 677.809 C 685.683 676.829 686.137 675.368 687.471 673.032 C 681.427 664.772 674.882 656.666 665.161 650.555 C 658.509 655.332 652.131 660.004 645.6 664.486 C 642.557 666.615 640.828 665.653 635.237 659.25 C 648.228 645.611 664.16 635.684 679.485 624.049 C 689.686 627.864 693.19 639.254 703.823 643.837 C 712.75 639.314 720.876 632.141 728.801 625.117 C 738.79 616.151 747.797 616.751 757.371 624.656 C 756.41 645.511 756.41 645.511 736.995 672.118 Z" style=""/>
  <path fill="blue" data-riding="Bourassa" d="M 648.603 208.334 C 660.717 224.745 669.959 240.051 679.446 254.709 C 671.625 272.249 617.638 357.014 605.168 371.444 C 601.852 369.963 597.79 368.568 594.554 366.167 C 590.638 363.124 587.274 359.082 583.88 355.345 C 581.504 352.717 579.395 349.82 577.435 347.379 C 578.83 338.785 584.819 334.449 590.384 329.885 C 596.663 324.568 600.499 318.104 603.854 310.511 C 607.984 301.377 613.175 292.664 618.619 284.091 C 625.998 272.829 630.816 260.88 631.276 247.577 C 631.922 233.192 637.741 221.243 648.603 208.334 Z" style=""/>
  <path fill="blue" data-riding="Notre-Dame-de-Grace—Westmount" d="M 621.374 656.834 C 625.604 663.505 628.753 668.235 632.256 673.953 C 628.459 676.849 625.21 679.351 621.04 682.605 C 609.8 671.677 599.016 661.171 587.196 649.575 C 599.411 634.015 612.487 620.613 626.544 608.37 C 629.981 605.329 635.867 605.054 641.744 603.16 C 643.352 597.589 645.119 591.479 646.934 585.347 C 653.151 585.579 659.01 586.707 663.953 580.389 C 673.921 567.893 684.87 556.364 696.398 543.415 C 701.275 547.191 705.718 550.32 710.702 553.863 C 709.454 558.679 708.534 562.909 707.24 567.772 C 710.289 571.876 713.538 576.507 717.255 581.723 C 702.509 596.235 685.303 607.264 669.497 619.712 C 654.086 631.867 638.534 643.65 621.374 656.834 Z" style=""/>
  <path fill="blue" data-riding="Outremont" d="M 655.586 576.173 C 648.248 571.355 643.017 567.772 637.427 563.89 C 638.72 558.619 640.075 553.903 641.663 547.878 C 637.427 543.874 632.816 539.578 628.546 535.389 C 628.546 533.554 628 531.799 628.626 530.884 C 639.495 515.64 650.63 500.435 661.471 485.11 C 664.553 480.647 668.624 478.144 673.881 477.231 C 679.532 476.25 685.222 475.083 690.807 474.161 C 696.857 472.974 702.156 474.369 707.012 478.185 C 713.163 483.108 719.609 487.68 725.694 492.329 C 724.798 499.48 722.445 502.816 715.706 500.582 C 714.353 500.148 713.037 499.414 711.684 498.933 C 704.551 496.745 699.047 498.5 695.084 505.152 C 693.317 508.233 691.56 511.471 689.64 514.766 C 691.815 518.682 693.915 522.332 696.044 526.041 C 695.731 527.383 695.879 529.11 695.084 530.052 C 682.533 544.915 669.812 559.659 655.586 576.173 Z" style=""/>
  <path fill="blue" data-riding="Rosemont—La Petite-Patrie" d="M 719.354 382.079 C 737.329 391.918 753.141 400.512 770.027 409.607 C 767.693 419.593 765.397 428.474 763.128 437.754 C 751.405 440.629 740.772 438.441 729.971 437.568 C 722.719 436.961 717.293 438.774 713.125 444.846 C 712.29 446.033 710.956 446.948 710.436 448.201 C 702.07 465.342 685.556 466.363 669.871 468.617 C 667.703 469.052 664.12 466.91 662.785 464.902 C 661.491 462.967 661.244 458.711 662.512 457.149 C 670.898 446.595 675.942 433.024 689.893 427.205 C 694.003 425.558 697.173 420.388 699.607 416.211 C 706.139 405.809 711.956 395.009 719.354 382.079 Z" style=""/>
  <path fill="blue" data-riding="Laurier—Sainte-Marie" d="M 752.908 529.09 C 744.174 522.499 736.789 516.888 728.556 510.697 C 732.264 504.105 735.415 498.619 739.27 491.742 C 729.095 483.483 719.068 475.602 708.573 467.158 C 710.742 463.233 712.537 460.319 714.478 457.189 C 719.442 449.016 726.261 445.426 736.435 446.701 C 745.756 447.996 755.203 447.575 764.67 448.496 C 775.745 449.515 786.127 452.412 792.484 463.987 C 791.196 473.434 789.775 483.403 788.148 494.871 C 781.729 498.454 772.322 498.813 768.213 508.194 C 765.111 515.307 761.186 522.518 752.908 529.09 Z" style=""/>
  <path fill="blue" data-riding="Papineau" d="M 612.215 464.362 C 617.558 452.432 621.748 441.59 626.919 431.416 C 633.05 419.32 644.559 411.961 655.586 405.936 C 663.786 401.454 669.083 395.944 673.921 388.71 C 678.571 381.519 682.761 373.966 689.118 366.774 C 696.73 370.023 704.071 372.424 709.995 379.557 C 703.657 391.045 697.439 402.288 691.227 413.422 C 690.019 415.317 688.785 417.76 687.078 418.213 C 677.464 421.262 671.833 428.494 666.349 436.193 C 660.93 443.866 655.153 451.224 648.796 459.67 C 650.963 463.881 653.753 467.93 655.194 472.495 C 655.88 474.662 654.713 478.019 653.171 480.127 C 652.298 481.355 648.961 482.195 647.433 481.441 C 636.3 476.876 624.812 472.68 612.215 464.362 Z" style=""/>
  <path fill="blue" data-riding="Ville-Marie—Le Sud-Ouest—Ile-des-Soeurs" d="M 782.27 510.215 C 786.939 522.225 791.649 532.72 788.775 545.042 C 787 552.695 791.011 558.866 796.867 564.057 C 802.332 568.833 808.416 573.19 810.065 580.783 C 809.611 582.197 809.485 583.891 808.604 584.873 C 791.464 604.613 797.495 604.053 810.918 619.633 C 804.747 637.458 796.181 654.638 782.79 669.216 C 780.622 671.697 776.846 673.786 773.636 674.201 C 766.065 675.287 758.224 675.495 750.346 673.407 C 765.984 642.09 765.984 642.09 767.278 619.232 C 759.578 613.315 750.238 610.097 738.73 607.183 C 727.889 615.062 716.42 623.362 703.696 632.623 C 698.92 627.786 694.563 623.281 689.099 617.777 C 701.695 604.307 717.333 596.341 729.056 584.326 C 729.489 576.072 721.15 573.671 718.835 565.645 C 719.276 562.703 720.088 557.866 720.923 552.422 C 716.019 547.251 711.076 542.059 705.926 536.637 C 708.18 529.318 708.033 522.792 702.803 516.641 C 701.842 515.454 703.511 511.236 705.01 509.281 C 705.698 508.255 709.474 508.048 710.702 509.008 C 719.736 515.179 728.221 521.871 737.142 528.19 C 743.461 532.761 749.032 538.43 756.309 540.787 C 768.091 533.093 768.693 516.201 782.27 510.215 Z M 812.898 472.787 C 811.986 474.681 810.378 476.437 810.417 478.185 C 810.652 486.779 810.946 495.33 811.819 503.878 C 812.232 507.967 813.967 511.904 815.969 519.103 C 825.082 498.707 823.454 483.502 812.898 472.787 Z" style=""/>
</svg>