<?xml version="1.0" encoding="utf-8"?>
<svg version="1.1" id="Layer_1" x="0px" y="0px" width="1045.5px" height="817.676px" viewBox="0 0 1045.5 817.676" enable-background="new 0 0 1045.5 817.676" xmlns="http://www.w3.org/2000/svg">
  <defs/>
  <path fill="#808285" stroke="#000000" stroke-width="1.4" stroke-miterlimit="10" d="M951.5,621.64"/>
  <path fill="blue" data-riding="Desnethe—Missinippi—Churchill River" d="M 331.813 56.917 C 337.283 58.443 342.733 60.039 348.225 61.487 C 384.087 70.963 420.246 79.199 456.813 85.395 C 479.309 89.214 501.944 92.204 524.516 95.579 C 525.071 95.653 525.628 95.758 526.401 95.89 C 526.089 98.323 525.814 100.756 525.466 103.195 C 521.824 129.035 518.162 154.879 514.516 180.714 C 510.878 206.444 507.229 232.173 503.614 257.906 C 501.816 270.695 499.875 283.45 498.367 296.264 C 497.394 304.566 497.052 312.919 496.486 321.229 C 495.695 332.893 494.964 344.523 494.203 356.178 C 493.382 368.729 492.558 381.279 491.737 393.824 C 491.446 398.21 491.156 402.592 490.863 407 C 490.56 407.072 490.317 407.075 490.146 407.189 C 487.837 408.702 485.365 409.777 482.695 410.559 C 481.212 410.997 480.295 415.089 480.598 416.92 C 480.993 419.29 481.461 421.764 481.165 424.098 C 480.916 426.027 479.6 427.807 478.771 429.665 C 478.447 430.399 478.204 431.166 477.844 431.882 C 477.568 432.424 477.281 433.11 476.799 433.383 C 475.616 434.051 474.636 434.785 474.385 436.22 C 474.331 436.532 474.139 436.906 473.892 437.052 C 472.556 437.958 471.637 438.89 471.361 440.732 C 471.082 442.566 467.679 444.369 465.909 444.069 C 461.294 443.278 456.693 442.469 452.085 441.646 C 451.815 441.598 451.564 441.46 451.183 441.335 C 451.665 437.874 452.142 434.432 452.621 430.962 C 453.483 430.933 454.203 430.906 455.189 430.893 C 455.473 429.279 455.767 427.6 456.085 425.815 C 455.26 425.635 454.563 425.503 453.723 425.303 C 454.188 421.144 454.655 417.022 455.117 412.899 C 455.287 411.383 455.455 409.867 455.596 408.352 C 455.731 406.952 455.884 405.687 457.004 404.558 C 458.416 403.138 458.416 401.494 457.412 400.487 C 456.289 399.354 454.826 399.426 453.097 400.423 C 452.429 400.808 451.488 400.84 450.67 400.834 C 449.218 400.813 447.779 400.55 446.537 401.709 C 446.152 402.065 445.428 402.272 444.892 402.206 C 443.469 402.05 442.471 402.365 442.039 403.881 C 441.665 405.217 440.817 404.795 440.107 404.217 C 439.046 403.372 437.908 402.922 436.709 403.728 C 436.164 404.094 435.819 404.791 435.481 405.412 C 435.301 405.723 435.487 406.35 435.259 406.541 C 433.701 407.8 432.231 409.583 430.445 410.029 C 428.396 410.535 426.421 410.32 426.146 413.097 C 426.101 413.558 425.513 413.971 425.216 414.358 C 423.985 414.202 423.743 413.549 423.878 412.548 C 424.099 410.883 424.252 409.208 424.452 407.326 C 414.821 405.999 405.311 404.669 395.625 403.323 C 395.96 401.037 396.278 398.892 396.613 396.57 C 389.259 395.156 381.99 393.766 374.59 392.343 C 374.05 395.156 373.55 397.793 373.014 400.609 C 370.977 400.172 369.023 399.764 366.887 399.297 C 366.524 400.834 366.192 402.287 365.788 404.01 C 361.263 403.103 356.778 402.2 352.177 401.292 C 351.538 404.175 350.918 406.961 350.265 409.906 C 347.556 409.319 344.998 408.765 342.313 408.184 C 341.894 410.185 341.508 412.039 341.091 414.032 C 339.872 413.723 338.754 413.465 337.553 413.162 C 337.855 411.479 338.137 409.951 338.449 408.211 C 329.904 406.368 321.449 404.531 312.802 402.664 C 313.605 398.356 314.4 394.135 315.221 389.745 C 310.745 388.841 306.415 387.972 301.849 387.062 C 302.822 385.431 303.473 383.99 301.912 382.481 C 302.82 382.115 303.761 381.99 304.312 381.465 C 304.968 380.823 305.48 379.883 305.654 378.99 C 305.708 378.709 304.528 377.972 303.826 377.804 C 301.322 377.18 298.769 376.716 296.115 376.159 C 296.309 374.769 296.486 373.474 296.685 372.045 C 295.033 371.649 293.464 371.27 291.711 370.858 C 292.046 369.19 292.364 367.614 292.723 365.84 C 279.398 362.599 266.125 359.372 252.633 356.097 C 253.233 353.728 253.79 351.451 254.381 349.174 C 270.334 288.426 286.297 227.664 302.245 166.91 C 311.796 130.521 321.326 94.102 330.865 57.708 C 330.941 57.43 331.031 57.157 331.118 56.897 C 331.363 56.933 331.584 56.924 331.813 56.917 Z" style=""/>
  <path fill="blue" data-riding="Souris—Moose Mountain" d="M 341.43 586.048 C 354.705 588.352 367.839 590.647 381.204 592.969 C 382.656 582.921 384.09 572.95 385.564 562.73 C 398.953 564.699 412.255 566.645 425.774 568.629 C 426.065 566.461 426.339 564.327 426.643 562.08 C 427.161 562.187 427.533 562.248 427.901 562.335 C 430.956 563.113 431.864 562.724 433.617 559.986 C 433.851 559.612 434.324 559.365 434.741 559.153 C 435.185 558.943 435.777 558.919 436.14 558.617 C 437.437 557.538 438.375 557.541 440.212 558.137 C 443.243 559.132 444.876 561.247 446.62 563.375 C 448.301 565.435 451.32 566.074 453.226 564.377 C 454.074 563.623 454.61 563.809 454.886 564.89 C 455.608 567.743 457.468 568.192 459.826 566.376 C 460.899 565.562 462.463 565.313 463.853 565.016 C 464.167 564.953 464.731 565.82 465.075 566.316 C 465.489 566.885 465.696 567.985 466.164 568.102 C 466.843 568.263 467.691 567.775 468.455 567.497 C 468.692 567.431 468.824 567.008 469.057 566.936 C 469.506 566.793 470.067 566.622 470.441 566.763 C 470.711 566.874 470.876 567.526 470.867 567.943 C 470.852 568.42 470.615 568.896 470.454 569.379 C 470.079 570.516 470.138 571.497 471.391 572.071 C 472.644 572.635 473.603 572.134 474.324 571.143 C 474.675 570.675 474.723 569.978 475.035 569.46 C 475.255 569.085 475.699 568.563 476.011 568.584 C 476.485 568.624 477.305 569.052 477.321 569.343 C 477.389 571.131 478.698 571.302 480.092 571.551 C 478.477 596.174 476.859 620.754 475.25 645.289 C 466.119 646.475 351.281 628.847 337.035 624.145 C 336.843 622.216 336.615 620.433 336.519 618.642 C 336.495 618.232 336.831 617.677 337.172 617.405 C 338.703 616.155 338.877 614.843 337.607 613.339 C 337.391 613.075 336.999 612.901 336.921 612.629 C 336.834 612.309 337.01 611.912 337.073 611.556 C 337.517 611.688 338.2 611.688 338.368 611.993 C 339.072 613.198 340.09 613.557 341.367 613.312 C 342.748 613.046 342.997 611.88 343.165 610.753 C 343.344 609.567 343.866 609.057 345.153 609.034 C 346.296 609.012 347.434 608.563 348.515 608.312 C 348.83 604.504 346.292 602.008 342.58 601.568 C 342.136 601.51 341.706 601.37 341.274 601.255 C 339.691 600.818 339.023 600.076 339.413 598.215 C 340.237 594.255 340.753 590.237 341.43 586.048 Z" style=""/>
  <path fill="blue" data-riding="Yorkton—Melville" d="M 479.69 570.274 C 479.367 569.935 478.866 569.606 478.755 569.213 C 478.366 567.712 477.225 567.284 475.945 567.245 C 474.623 567.188 473.91 568.021 473.698 569.306 C 473.644 569.617 473.558 570.052 473.327 570.233 C 472.94 570.535 472.428 570.673 471.969 570.888 C 471.895 570.451 471.724 569.978 471.769 569.552 C 471.828 568.881 472.258 568.204 472.128 567.613 C 471.963 566.871 471.529 565.768 470.981 565.612 C 470.147 565.367 469.073 565.675 468.17 565.968 C 467.646 566.131 467.256 566.715 466.615 567.275 C 466.339 565.504 466.052 563.704 464.135 563.841 C 462.376 563.976 460.492 564.509 458.972 565.39 C 457.229 566.421 456.675 566.457 456.132 564.474 C 455.578 562.467 453.721 561.963 452.295 563.536 C 451.435 564.491 450.868 564.435 449.736 563.863 C 448.388 563.182 447.423 562.454 446.878 561.04 C 446.734 560.669 446.057 560.526 445.667 560.228 C 445.096 559.791 444.397 559.414 444.047 558.829 C 443.352 557.642 442.783 556.514 441.077 557.128 C 440.892 557.191 440.556 556.816 440.271 556.669 C 439.927 556.492 439.589 556.286 439.22 556.202 C 438.231 555.95 433.24 558.029 432.682 558.886 C 430.754 561.853 430.409 561.96 426.76 560.615 C 427.271 556.034 427.791 551.402 428.32 546.668 C 431.706 545.889 435.046 545.12 438.384 544.355 C 440.143 543.93 440.871 541.635 439.549 540.305 C 437.272 538.046 434.903 535.87 432.491 533.75 C 431.937 533.267 431.056 533.153 430.1 532.779 C 430.669 527.745 431.25 522.637 431.844 517.4 C 427.478 516.714 423.218 516.068 418.775 515.354 C 419.862 506.834 420.935 498.459 422.031 489.888 C 413.492 488.621 405.051 487.362 396.431 486.08 C 397.713 477.484 398.975 468.988 400.259 460.302 C 395.904 459.49 391.661 458.7 387.269 457.869 C 387.97 454.002 388.65 450.257 389.369 446.275 C 401.904 448.48 414.353 450.667 427.005 452.89 C 427.844 448.238 428.652 443.722 429.492 439.087 C 434.322 439.929 439.028 440.762 443.735 441.571 C 451.117 442.877 458.493 444.177 465.882 445.454 C 467.834 445.784 469.605 445.562 470.613 443.486 C 470.815 443.054 471.325 442.799 471.694 442.449 C 472.018 442.14 472.632 441.814 472.617 441.529 C 472.482 439.618 473.899 438.854 475.067 437.859 C 475.37 437.589 475.405 437.036 475.658 436.673 C 476.118 436.019 476.595 435.36 477.171 434.797 C 477.602 434.38 478.648 434.141 478.653 433.808 C 478.695 431.489 480.724 430.081 481.23 428.002 C 481.463 427.044 482.371 426.166 482.371 425.245 C 482.378 422.4 482.375 419.475 481.86 416.695 C 481.34 413.884 483.07 411.188 485.907 411.062 C 486.611 411.03 487.339 410.613 487.959 410.217 C 488.777 409.702 489.502 409.034 490.272 408.435 C 490.437 408.519 490.601 408.612 490.767 408.699 C 487.246 462.444 483.716 516.193 480.194 569.942 C 480.029 570.022 479.858 570.148 479.69 570.274 Z" style=""/>
  <path fill="blue" data-riding="Moose Jaw—Lake Centre—Lanigan" d="M 396.958 473.802 C 396.068 479.731 395.221 485.409 394.372 491.089 C 392.278 505.135 390.169 519.177 388.12 533.241 C 388.002 534.025 388.482 534.891 388.419 535.682 C 388.353 536.545 388.246 537.815 387.694 538.16 C 384.117 540.362 382.901 543.717 382.454 547.618 C 382.251 549.401 381.72 551.133 381.313 553.014 C 380.025 552.828 378.814 552.637 377.463 552.451 C 377.026 554.174 376.501 555.824 376.199 557.514 C 375.905 559.141 377.889 561.568 379.548 561.819 C 381.091 562.05 382.622 562.304 384.282 562.571 C 382.885 572.246 381.522 581.778 380.132 591.459 C 375.581 590.674 371.21 589.94 366.842 589.176 C 358.738 587.762 350.639 586.312 342.526 584.943 C 341.286 584.733 340.381 584.145 340.321 583.04 C 340.282 582.354 341.103 581.614 341.54 580.934 C 341.855 580.431 342.371 579.976 342.466 579.451 C 344.399 568.174 346.283 556.894 348.219 545.371 C 340.681 543.936 333.185 542.504 325.544 541.042 C 326.353 536.611 327.139 532.297 327.92 527.997 C 328.493 524.896 329.065 521.795 329.643 518.688 C 329.724 518.251 329.829 517.801 329.997 517.391 C 330.811 515.33 330.168 514.165 327.924 513.91 C 326.944 513.799 326.207 513.632 325.452 512.85 C 324.867 512.247 323.724 512.02 322.803 511.924 C 321.671 511.83 321.494 511.216 321.267 510.324 C 321.099 509.653 320.58 509.071 320.203 508.457 C 320.039 508.188 319.705 507.969 319.654 507.688 C 319.37 506.043 319.244 504.359 318.867 502.737 C 318.681 501.95 318.016 501.303 317.671 500.536 C 317.363 499.841 316.883 499.01 317.015 498.355 C 317.522 495.799 317.318 495.311 315.064 494.094 C 314.702 493.909 314.501 493.034 314.559 492.497 C 314.72 490.99 315.37 489.466 315.232 488.003 C 315.071 486.32 315.855 485.82 317.137 485.703 C 318.849 485.555 320.268 485.266 319.721 482.874 C 320.778 482.848 321.677 482.689 322.527 482.823 C 324.916 483.225 327.193 481.485 327.411 479.06 C 327.469 478.437 327.66 477.686 328.065 477.26 C 329.805 475.483 328.78 473.439 328.765 471.483 C 328.765 470.845 328.454 470.21 328.214 469.315 C 332.349 470.192 336.273 471.022 340.309 471.879 C 341.011 468.994 341.67 466.276 342.356 463.454 C 360.568 466.908 378.655 470.333 396.958 473.802 Z" style=""/>
  <path fill="blue" data-riding="Carlton Trail—Eagle Creek" d="M 318.408 483.989 C 317.153 484.421 315.963 484.627 314.974 485.193 C 314.454 485.495 314.013 486.38 313.992 487.039 C 313.929 488.848 314.313 490.646 313.168 492.357 C 312.428 493.471 313.369 494.778 314.831 495.545 C 315.358 495.823 316.032 496.818 315.882 497.192 C 315.064 499.281 315.511 500.805 317.401 501.962 C 317.504 502.028 317.513 502.264 317.683 502.753 C 309.657 501.291 301.838 499.85 293.904 498.42 C 294.278 496.512 294.619 494.762 294.997 492.853 C 286.204 490.84 277.504 488.845 268.548 486.799 C 270.316 478.488 272.056 470.267 273.905 461.594 C 275.133 463.226 276.272 464.173 278.114 463.493 C 279.044 459.194 279.987 454.798 280.967 450.275 C 282.765 450.094 284.005 451.111 284.946 452.297 C 285.761 453.33 286.743 453.983 287.792 453.51 C 288.604 453.142 289.386 452.075 289.614 451.156 C 290.374 448.157 290.875 445.1 291.486 442.054 C 291.593 441.526 291.738 441.001 291.914 440.268 C 292.328 440.642 292.534 440.942 292.813 441.055 C 293.747 441.445 294.706 441.994 295.659 442.003 C 296.022 442.003 296.553 440.735 296.729 439.977 C 297.364 437.292 297.88 434.608 298.44 431.924 C 299.755 432.305 300.944 432.652 302.277 433.038 C 303.485 427.109 304.633 421.491 305.819 415.67 C 307.246 415.925 308.591 416.17 310.133 416.446 C 310.945 412.291 311.736 408.225 312.566 403.968 C 320.736 405.723 328.801 407.458 336.972 409.217 C 336.66 410.867 336.369 412.402 336.037 414.157 C 338.005 414.634 339.947 415.092 342.083 415.625 C 342.502 413.66 342.894 411.817 343.335 409.753 C 345.556 410.226 347.715 410.706 350.07 411.23 C 349.828 412.165 349.602 412.95 349.426 413.768 C 349.037 415.515 349.702 416.257 351.482 415.966 C 352.081 415.886 352.641 415.437 353.234 415.41 C 353.737 415.386 354.255 415.721 354.768 415.901 C 354.45 416.416 354.223 417.06 353.77 417.405 C 353.363 417.716 352.686 417.669 352.168 417.878 C 350.933 418.373 350.234 419.224 350.547 420.646 C 350.861 422.082 352.011 422.331 353.159 422.172 C 354.133 422.031 355.032 421.419 356.008 421.192 C 356.467 421.081 357.467 421.41 357.471 421.531 C 357.44 423.75 359.055 423.963 360.634 424.278 C 360.847 424.314 361.042 424.431 361.725 424.707 C 360.927 425.734 360.409 426.804 359.544 427.394 C 358.121 428.358 357.051 429.452 356.613 431.142 C 356.512 431.547 356.293 432.067 355.963 432.251 C 354.073 433.296 353.62 434.857 354.192 437.011 C 357.878 437.94 361.677 438.899 365.598 439.884 C 365.878 438.818 366.126 437.852 366.452 436.615 C 369.184 437.158 371.902 437.686 374.854 438.293 C 374.587 439.99 374.338 441.628 374.054 443.473 C 378.757 444.309 383.374 445.151 388.093 445.999 C 387.311 450.311 386.562 454.469 385.771 458.837 C 390.103 459.649 394.387 460.449 398.822 461.269 C 398.253 465.041 397.707 468.697 397.144 472.481 C 392.173 471.558 387.368 470.671 382.565 469.763 C 369.332 467.256 356.117 464.7 342.871 462.244 C 340.339 461.773 338.214 460.961 337.187 458.456 C 336.351 456.423 334.503 456.728 332.909 456.396 C 332.729 456.354 332.382 456.477 332.319 456.611 C 331.255 458.927 329.332 458.217 327.328 457.887 C 327.048 459.065 326.707 460.159 326.555 461.3 C 326.503 461.645 326.89 462.148 327.211 462.447 C 327.75 462.921 328.472 463.221 328.982 463.723 C 330.248 464.973 330.078 466.198 328.516 466.977 C 327.082 467.684 326.629 468.611 327.079 470.237 C 327.492 471.729 327.537 473.332 327.666 474.893 C 327.696 475.297 327.453 475.716 327.294 476.112 C 326.911 477.11 326.378 478.069 326.12 479.093 C 325.817 480.3 323.996 481.694 322.783 481.469 C 322.288 481.382 321.779 481.362 321.276 481.367 C 319.167 481.409 318.612 481.924 318.408 483.989 Z" style=""/>
  <path fill="blue" data-riding="Prince Albert" d="M 362.884 423.643 C 361.575 423.245 360.362 422.873 359.053 422.463 C 358.986 422.151 358.908 421.777 358.807 421.399 C 358.387 419.811 357.245 419.227 355.712 419.871 C 355.086 420.128 354.508 420.601 353.872 420.683 C 353.213 420.758 352.515 420.449 351.835 420.309 C 352.296 419.844 352.737 419.341 353.246 418.93 C 353.435 418.774 353.791 418.828 354.06 418.754 C 355.658 418.286 356.386 417.069 356.017 415.542 C 355.7 414.202 354.642 413.699 352.908 414.133 C 352.224 414.305 351.583 414.592 350.579 414.957 C 351.473 410.748 352.287 406.886 353.147 402.805 C 357.704 403.726 362.147 404.615 366.779 405.555 C 367.144 403.989 367.492 402.482 367.875 400.84 C 369.91 401.281 371.873 401.712 374.038 402.182 C 374.565 399.429 375.085 396.742 375.635 393.869 C 382.154 395.12 388.593 396.355 395.167 397.623 C 394.822 399.932 394.492 402.083 394.139 404.426 C 403.742 405.754 413.317 407.084 423.053 408.435 C 422.883 410.134 422.807 411.761 422.52 413.346 C 422.289 414.666 423.161 414.984 424.019 415.407 C 424.908 415.835 425.75 415.952 426.415 415.014 C 426.771 414.511 427.37 414.02 427.415 413.471 C 427.58 411.476 428.901 411.416 430.387 411.437 C 430.933 411.443 431.667 411.476 431.991 411.161 C 433.228 409.96 434.441 408.8 436.032 408.027 C 436.436 407.833 436.503 406.841 436.631 406.197 C 436.961 404.571 437.707 404.231 439.103 405.136 C 441.362 406.572 441.877 406.431 443.393 404.052 C 443.592 403.74 444.202 403.683 444.639 403.551 C 445.56 403.273 446.488 403.003 447.414 402.767 C 448.343 402.533 449.451 401.913 450.186 402.204 C 451.638 402.782 452.711 402.383 453.795 401.613 C 454.64 401.035 455.635 400.469 456.324 401.397 C 456.672 401.844 456.486 403.291 456.018 403.699 C 454.673 404.885 454.539 406.314 454.373 407.908 C 453.768 413.735 453.05 419.556 452.387 425.384 C 452.349 425.695 452.4 426.043 452.409 426.426 C 453.079 426.585 453.721 426.738 454.532 426.917 C 454.409 427.798 454.287 428.656 454.16 429.521 C 453.236 429.545 452.459 429.569 451.546 429.587 C 450.995 433.434 450.443 437.263 449.87 441.259 C 442.686 440.01 435.618 438.787 428.437 437.541 C 427.596 442.251 426.801 446.718 425.971 451.347 C 409.116 448.375 392.383 445.418 375.518 442.446 C 375.812 440.681 376.082 439.042 376.378 437.301 C 372.696 436.543 369.128 435.804 365.479 435.052 C 365.197 436.146 364.939 437.113 364.634 438.287 C 361.701 437.556 358.818 436.87 355.958 436.103 C 355.019 435.846 354.909 434.638 355.871 434.009 C 357.15 433.17 357.78 432.062 358.235 430.669 C 358.435 430.039 359.017 429.438 359.58 429.021 C 362.186 427.094 362.204 427.116 362.884 423.643 Z" style=""/>
  <path fill="blue" data-riding="Regina—Qu'Appelle" d="M 385.792 561.46 C 385.957 560.046 386.101 558.836 386.26 557.484 C 384.866 557.25 383.56 557.041 382.029 556.786 C 382.212 555.636 382.347 554.542 382.562 553.478 C 382.945 551.543 383.542 549.643 383.754 547.675 C 384.147 544.104 385.42 541.144 388.617 539.145 C 389.828 538.391 390.337 537.136 389.765 535.613 C 388.802 533.057 389.822 530.589 390.178 528.135 C 392.114 514.8 394.132 501.482 396.128 488.165 C 396.158 487.953 396.224 487.731 396.314 487.335 C 404.374 488.527 412.378 489.708 420.599 490.919 C 419.518 499.391 418.445 507.798 417.343 516.4 C 421.706 517.07 425.962 517.733 430.423 518.428 C 429.842 523.569 429.27 528.635 428.692 533.741 C 433.15 534.669 435.34 538.483 438.438 541.072 C 439.403 541.878 438.914 542.869 437.578 543.16 C 434.609 543.846 431.652 544.571 428.661 545.155 C 427.469 545.404 427.053 545.964 426.928 547.163 C 426.25 553.766 425.478 560.358 424.713 567.179 C 411.71 565.262 398.852 563.371 385.792 561.46 Z" style=""/>
  <path fill="blue" data-riding="Brandon—Souris" d="M 476.418 642.871 C 476.568 641.723 476.784 640.576 476.864 639.426 C 477.695 626.821 478.504 614.208 479.327 601.604 C 479.498 598.919 479.697 596.232 479.888 593.424 C 485.874 593.834 491.704 594.233 497.766 594.625 C 497.508 599.233 497.247 603.772 496.98 608.528 C 501.678 608.965 506.25 609.393 510.947 609.828 C 511.1 608.266 511.236 606.817 511.397 605.118 C 520.121 605.598 528.819 606.089 537.738 606.589 C 537.672 608.808 537.609 610.981 537.544 613.291 C 541.774 613.533 545.866 613.777 550.033 614.019 C 550.064 615.029 550.096 615.955 550.12 617.078 C 552.005 617.269 553.89 617.459 555.95 617.677 C 556.047 616.491 556.149 615.388 556.262 614.12 C 558.965 614.286 561.571 614.436 564.268 614.618 C 564.124 617.842 563.989 620.871 563.848 623.984 C 564.462 624.113 564.987 624.214 565.657 624.353 C 565.601 625.317 565.565 626.27 565.487 627.411 C 561.466 627.153 557.559 626.905 553.44 626.642 C 553.224 630.185 553.003 633.577 552.769 637.131 C 554.704 637.238 556.499 637.245 558.263 637.487 C 559.792 637.696 561.49 637.87 562.703 638.671 C 563.776 639.386 564.936 640.921 564.984 642.131 C 565.121 646.338 564.798 650.561 564.637 655.05 C 561.719 654.837 558.935 654.66 556.158 654.432 C 544.865 653.432 533.559 652.596 522.293 651.347 C 507.337 649.707 492.411 647.748 477.473 645.917 C 477.146 645.876 476.805 645.908 476.476 645.908 C 476.476 644.893 476.445 643.884 476.418 642.871 Z" style=""/>
  <path fill="blue" data-riding="Dauphin—Swan River—Neepawa" d="M 532.199 485.406 C 532.636 485.777 533.028 485.999 533.286 486.34 C 533.573 486.721 534.046 487.353 533.915 487.602 C 533.199 488.944 532.708 490.166 534.017 491.457 C 534.134 491.575 533.831 492.393 533.541 492.606 C 530.946 494.43 531.522 496.955 532.222 499.301 C 532.735 500.985 534.003 502.495 532.678 504.344 C 532.564 504.514 532.755 504.862 532.795 505.14 C 532.95 506.264 533.064 507.394 533.271 508.502 C 533.412 509.279 533.676 510.03 533.889 510.792 C 534.391 510.158 535.296 509.551 535.323 508.889 C 535.509 506.036 535.419 503.167 535.449 500.299 C 535.458 499.502 535.317 498.615 535.635 497.974 C 535.944 497.318 536.729 496.89 537.304 496.356 C 537.693 496.89 538.293 497.378 538.421 497.959 C 538.69 499.218 538.712 500.536 538.858 501.818 C 539.044 503.754 539.544 505.709 539.404 507.616 C 539.26 509.548 538.636 511.453 537.95 513.284 C 537.139 515.438 536.477 516.546 539.281 518.032 C 539.833 518.326 540.216 518.955 540.642 519.455 C 541.18 520.087 541.975 521.391 542.166 521.29 C 543.226 520.807 544.165 520.028 545.091 519.285 C 545.303 519.099 545.327 518.664 545.389 518.329 C 545.777 515.597 546.184 512.861 546.489 510.123 C 546.552 509.56 546.214 508.954 546.055 508.392 C 545.83 508.379 545.618 508.374 545.387 508.374 C 545.201 509.024 545.01 509.662 544.853 510.303 C 544.635 511.231 544.635 512.247 544.179 513.056 C 543.877 513.607 543.011 513.991 542.361 514.102 C 542.097 514.15 541.451 513.182 541.406 512.634 C 541.22 510.914 541.046 509.14 541.204 507.424 C 541.297 506.363 541.783 505.185 542.48 504.364 C 543.692 502.891 544.449 501.377 544.089 499.191 C 547.427 499.245 550.615 499.295 553.926 499.352 C 553.74 503.984 553.572 508.412 553.39 512.82 C 550.015 513.742 549.546 514.255 549.126 517.799 C 548.904 519.611 548.769 521.469 548.688 523.308 C 548.659 523.962 548.901 524.621 549.123 525.748 C 549.707 525.019 550.19 524.639 550.369 524.153 C 550.75 523.036 551.004 521.88 551.25 520.719 C 551.562 519.224 552.545 518.755 553.809 519.6 C 555.226 520.537 556.595 521.535 556.963 523.384 C 557.102 524.043 557.374 524.672 557.563 525.3 C 557.682 525.325 557.812 525.403 557.889 525.363 C 560.84 523.881 561.092 523.971 562.629 526.862 C 563.249 528.015 563.102 528.998 562.228 529.935 C 560.535 531.764 560.307 533.951 561.685 536.069 C 562.617 537.492 562.911 539.29 564.612 540.251 C 565.056 540.509 565.077 541.54 565.37 542.444 C 565.865 542.078 566.248 541.719 566.701 541.464 C 567.609 540.955 568.633 540.476 569.376 541.632 C 570.081 542.704 569.996 543.804 568.69 544.461 C 567.161 545.239 566.856 546.342 567.273 547.948 C 567.986 550.635 568.366 553.377 567.456 556.124 C 566.461 559.051 568.223 561.304 569.517 563.5 C 571.327 566.535 572.222 569.678 572.815 573.144 C 573.331 576.227 574.625 579.265 576.108 582.069 C 577.421 584.586 577.466 585.377 575.209 587.121 C 574.478 587.684 573.993 588.97 573.945 589.952 C 573.535 597.828 573.273 605.717 572.974 613.857 C 566.932 613.513 561.053 613.171 555.007 612.811 C 554.944 613.998 554.905 615.05 554.854 616.26 C 553.722 616.179 552.673 616.074 551.541 615.978 C 551.514 614.954 551.483 613.962 551.451 612.818 C 547.289 612.581 543.2 612.347 538.903 612.102 C 538.961 609.848 539.021 607.692 539.084 605.403 C 529.431 604.848 519.926 604.327 510.246 603.77 C 510.103 605.298 509.956 606.793 509.797 608.449 C 505.978 608.102 502.247 607.763 498.347 607.389 C 498.616 602.723 498.876 598.23 499.152 593.493 C 492.831 593.056 486.563 592.606 479.972 592.137 C 483.189 543.089 486.398 494.124 489.625 444.941 C 493.028 445.127 496.327 445.289 499.626 445.481 C 503.341 445.687 507.056 445.898 510.768 446.173 C 511.469 446.23 512.626 446.544 512.733 446.954 C 512.973 447.893 512.805 449.011 512.572 449.981 C 512.446 450.529 511.853 450.963 511.43 451.416 C 510.382 452.525 510.418 453.346 511.792 453.78 C 513.836 454.424 514.426 455.97 514.977 457.773 C 515.223 458.559 515.996 459.7 516.589 459.724 C 517.7 459.79 519.226 459.529 519.899 458.79 C 520.954 457.627 521.688 456.011 522.084 454.469 C 522.317 453.549 521.692 452.402 521.335 451.383 C 521.227 451.062 520.649 450.93 520.481 450.592 C 520.085 449.792 519.813 448.938 519.486 448.111 C 520.421 448.016 521.443 447.581 522.23 447.863 C 524.083 448.513 525.811 449.495 527.596 450.316 C 528.657 450.805 528.672 451.515 528.067 452.36 C 527.129 453.662 526.138 454.906 528.279 456.063 C 528.465 456.174 528.279 457.165 528.118 457.705 C 527.891 458.505 527.284 459.245 527.255 460.014 C 527.204 461.327 527.893 462.711 529.281 462.624 C 529.982 462.562 530.841 461.189 531.174 460.251 C 531.611 459.001 531.683 457.584 531.761 456.255 C 531.824 455.107 532.417 454.439 533.418 454.621 C 534.146 454.762 534.823 455.433 535.371 456.027 C 535.617 456.282 535.339 456.979 535.56 457.321 C 536.039 458.037 536.567 459.005 537.289 459.247 C 540.018 460.182 540.626 461.776 539.006 464.191 C 538.152 465.473 537.399 466.834 536.552 468.248 C 536.989 468.412 537.28 468.602 537.585 468.625 C 539.173 468.672 539.721 469.665 539.85 471.049 C 539.886 471.384 539.893 471.735 539.88 472.074 C 539.779 475.201 539.763 475.165 542.639 474.257 C 543.078 474.125 544.044 474.297 544.075 474.501 C 544.311 475.435 544.761 476.9 544.32 477.301 C 542.951 478.569 543.448 479.95 543.416 481.358 C 543.397 481.963 542.978 483.06 542.729 483.06 C 541.92 483.072 540.776 482.895 540.42 482.373 C 539.815 481.439 539.662 480.172 539.401 479.027 C 539.147 477.874 538.652 477.619 537.645 478.32 C 535.922 479.524 534.344 480.741 534.113 483.132 C 534.021 483.875 532.903 484.579 532.199 485.406 Z" style=""/>
  <path fill="blue" data-riding="Portage—Lisgar" d="M 615.85 640.417 C 614.326 640.387 612.98 640.421 611.659 640.289 C 610.664 640.199 610.326 640.6 610.308 641.49 C 610.283 642.55 610.23 643.617 610.191 644.59 C 609.963 644.729 609.868 644.794 609.768 644.797 C 607.099 644.923 607.102 644.917 606.952 647.745 C 606.892 648.647 606.814 649.555 606.766 650.444 C 606.715 651.343 606.704 652.242 606.679 653.405 C 608.205 653.555 609.732 653.687 611.419 653.83 C 611.354 655.25 611.29 656.574 611.218 658.141 C 596.053 657.15 581.072 656.176 565.966 655.184 C 566.119 651.146 566.069 647.257 566.443 643.407 C 566.784 639.872 563.651 636.591 560.307 636.273 C 558.359 636.088 556.376 636.019 554.207 635.89 C 554.271 634.581 554.321 633.332 554.399 632.058 C 554.477 630.764 554.585 629.497 554.69 627.995 C 558.729 628.253 562.668 628.505 566.733 628.766 C 566.845 626.83 566.946 625.041 567.048 623.168 C 566.443 623.052 565.913 622.957 565.218 622.803 C 565.356 620.107 565.491 617.423 565.628 614.684 C 568.555 614.846 571.246 614.996 574.161 615.137 C 574.472 608.051 574.769 601.091 575.093 593.957 C 577.975 595.477 581.034 596.331 584.06 595.456 C 586.884 594.643 589.488 593.052 592.23 591.792 C 591.924 595.833 591.631 599.968 591.304 604.189 C 593.294 604.386 595.244 605.249 596.34 603.348 C 597.775 603.862 599.489 603.953 600.163 604.839 C 601.43 606.479 603.108 606.663 604.777 607.194 C 605.011 607.272 605.215 607.548 605.361 607.79 C 606.677 609.962 606.809 610.07 609.097 610.592 C 608.954 612.524 608.885 614.472 608.627 616.406 C 608.465 617.654 609.001 618.042 610.077 618.069 C 611.998 618.132 613.909 618.163 615.958 618.205 C 616 619.421 615.895 620.619 616.099 621.74 C 616.294 622.771 616.695 623.802 617.262 624.688 C 617.756 625.481 617.801 625.772 617.043 626.431 C 615.545 627.744 613.618 628.876 613.891 631.432 C 614.539 631.539 615.287 631.66 616.15 631.797 C 616.027 634.67 615.937 637.415 615.85 640.417 Z" style=""/>
  <path fill="blue" data-riding="Provencher" d="M 683.863 591.926 C 683.821 591.935 683.8 591.944 683.746 591.942 C 680.697 591.687 677.586 591.564 674.572 590.994 C 674.509 591.974 674.482 592.945 674.438 593.931 L 671.334 594.02 C 671.13 596.279 670.923 598.496 670.713 600.867 C 669.021 600.782 667.465 600.696 665.77 600.621 C 665.656 602.263 665.542 603.868 665.414 605.661 C 663.865 605.616 662.373 605.57 660.775 605.525 L 660.712 602.898 C 659.251 602.864 657.881 602.835 656.366 602.814 C 656.276 604.216 656.18 605.471 656.111 606.744 L 647.56 606.984 C 647.464 608.308 647.36 609.753 647.249 611.101 L 636.993 611.392 C 637.05 609.456 637.095 607.808 637.158 605.906 C 633.875 605.951 630.627 604.72 627.579 607.093 C 626.471 607.958 625.97 608.677 626.445 610.049 C 627.124 610.178 627.819 610.316 628.655 610.487 C 628.545 611.937 628.433 613.399 628.314 614.918 L 626.375 614.981 C 626.81 617.585 625.402 619.217 623.673 620.889 C 621.962 622.545 620.335 623.816 617.591 622.872 C 619.766 625.551 619.371 627.097 616.357 629.044 C 616.09 629.224 615.812 629.383 615.608 629.614 C 615.485 629.763 615.503 630.024 615.431 630.306 C 616.099 630.387 616.686 630.474 617.477 630.546 C 617.357 634.251 617.247 637.886 617.139 641.585 L 611.71 641.735 C 611.594 643.155 611.479 644.597 611.365 646.098 L 608.345 646.175 C 608.232 648.189 608.12 650.115 608.01 652.215 C 609.678 652.371 611.209 652.512 612.818 652.652 C 612.726 654.463 612.632 656.206 612.537 658.069 C 615.626 658.264 618.654 658.531 621.675 658.672 C 639.651 659.454 657.627 660.203 675.603 660.964 C 676.93 661.027 678.266 661.122 679.594 661.203 L 682.647 661.117 C 682.788 658.833 683.019 656.56 683.066 654.259 C 683.387 633.487 683.707 612.722 684.004 591.942 C 683.932 591.935 683.896 591.926 683.863 591.926 Z" style=""/>
  <path fill="blue" data-riding="Churchill—Keewatinook Aski" d="M 859.412 262.079 L 859.424 262.403 C 859.032 262.79 858.612 263.146 858.27 263.583 C 843.515 282.249 828.775 300.956 814.022 319.636 C 792.939 346.318 771.862 373.007 750.755 399.696 C 746.488 405.091 742.51 410.79 737.698 415.668 C 721.355 432.253 704.713 448.543 688.136 464.907 C 686.532 466.489 685.778 468.226 685.751 470.456 C 685.565 485.271 685.316 500.104 685.101 514.932 C 684.765 537.645 684.444 560.358 684.109 583.08 C 684.075 585.568 684.034 588.052 683.995 590.548 C 683.986 590.548 683.983 590.542 683.977 590.542 C 683.836 590.551 683.698 590.542 683.557 590.512 C 683.533 590.512 683.501 590.524 683.492 590.524 C 680.558 590.282 677.544 590.176 674.644 589.589 C 674.707 588.34 674.761 587.097 674.83 585.844 C 670.408 585.593 666.279 585.359 662.091 585.129 C 662.121 583.658 662.148 582.384 662.16 581.036 C 660.602 580.859 659.224 580.724 657.771 580.577 C 657.678 580.003 657.597 579.475 657.513 578.894 C 655.689 578.717 653.977 578.567 652.228 578.381 C 652.051 579.361 651.917 580.191 651.776 581.108 C 650.563 581.057 649.406 581.021 648.046 580.964 C 648.358 579.281 648.046 577.95 646.56 577.099 C 646.341 576.977 646.308 576.356 646.359 575.978 C 646.673 572.575 647.273 569.169 647.314 565.756 C 647.378 563.198 647.141 560.48 646.359 558.074 C 645.137 554.401 646.062 551.839 648.869 549.398 C 650.499 547.975 650.305 546.914 649.001 545.086 C 646.94 542.262 644.978 539.358 642.811 536.617 C 641.757 535.296 641.499 534.127 642.378 532.68 C 643.21 531.278 642.874 530.016 641.871 528.797 C 640.435 527.053 639.061 525.268 637.676 523.485 C 635.939 521.256 635.945 521.247 637.557 518.917 C 638.62 517.355 638.515 516.639 636.993 515.507 C 635.872 514.686 634.713 513.874 633.559 513.047 C 633.772 512.697 633.841 512.46 634.007 512.337 C 636.457 510.572 635.917 510.087 634.264 508.038 C 631.432 504.562 629.605 500.503 627.94 496.856 C 628.682 495.787 629.749 494.973 629.695 494.211 C 629.515 490.867 629.305 487.47 628.565 484.213 C 627.864 481.106 626.595 478.11 625.383 475.145 C 624.107 472.085 622.87 468.967 621.135 466.168 C 619.392 463.38 618.865 460.737 620.053 457.699 C 620.767 455.853 620.685 454.023 619.73 452.312 C 619.056 451.093 619.047 449.984 619.694 448.789 C 620.317 447.662 619.952 446.838 619.041 445.969 C 618.166 445.151 617.072 444.157 616.857 443.066 C 616.294 440.008 615.107 437.167 613.987 434.302 C 613.9 434.048 613.858 433.746 613.84 433.475 C 613.726 431.42 612.939 429.674 611.594 428.14 C 610.032 426.343 608.846 424.7 610.335 421.974 C 611.521 419.832 610.442 418.798 608.006 419.227 C 605.709 419.628 603.779 419.095 602.188 417.357 C 601.314 416.419 600.301 415.562 599.489 414.556 C 596.311 410.625 592.236 409.376 587.409 410.472 C 585.794 410.838 584.476 410.556 583.094 409.717 C 581.111 408.522 578.925 408.393 576.729 409.067 C 574.643 409.702 573.66 411.404 572.708 413.178 C 571.95 414.589 573.145 415.475 573.414 416.605 C 573.633 417.474 573.669 418.837 573.154 419.35 C 571.719 420.785 571.462 422.421 571.395 424.278 C 571.267 428.335 569.877 431.831 566.836 434.674 C 566.15 435.33 565.673 436.523 565.607 437.509 C 565.469 439.21 564.796 440.526 563.548 441.601 C 562.8 442.263 562.125 443.255 560.966 442.413 C 559.789 441.565 559.3 440.441 559.935 439.018 C 560.356 438.083 560.939 437.209 561.152 436.232 C 561.296 435.566 560.927 434.797 560.789 434.06 C 560.107 434.411 559.193 434.591 558.794 435.142 C 557.335 437.17 554.645 437.919 552.445 436.771 C 551.891 436.472 551.256 436.388 550.636 436.205 C 550.45 436.942 550.3 437.688 550.12 438.419 C 549.935 439.145 549.944 440.121 549.491 440.537 C 547.808 442.005 544.65 440.972 544.405 438.797 C 544.141 436.538 544.024 434.165 545.557 432.161 C 546.37 431.099 546.252 430.144 545.537 429.066 C 544.952 428.194 544.255 427.214 544.17 426.235 C 543.784 421.878 540.836 419.637 537.462 417.747 C 536.166 417.028 534.463 416.92 533.199 418.445 C 532.564 419.218 530.976 420.143 530.395 419.865 C 527.836 418.597 525.709 419.37 523.487 420.503 C 523.301 420.596 523.048 420.53 522.817 420.569 C 520.594 421.099 518.467 421.804 517.263 423.972 C 517.068 424.323 516.808 424.973 516.949 425.108 C 517.931 426.063 518.911 427.098 520.076 427.793 C 521.856 428.831 523.873 429.476 525.616 430.566 C 526.309 431.004 526.53 432.19 526.988 432.999 C 527.45 433.802 527.965 434.678 529.092 434.003 C 531.338 432.682 531.896 432.858 531.717 435.474 C 531.45 439.564 534.259 441.344 537.085 443.084 C 538.652 444.045 540.44 444.641 542.049 445.517 C 543.715 446.436 545.243 446.503 546.762 445.292 C 548.758 443.698 551.193 443.426 553.572 443.051 C 555.07 442.805 555.757 443.614 555.6 445.166 C 555.526 445.891 555.232 446.616 555.289 447.323 C 555.349 447.842 555.804 448.321 556.089 448.812 C 556.526 448.498 557.137 448.255 557.359 447.821 C 558.025 446.539 558.869 445.511 560.367 445.397 C 562.114 445.275 563.875 445.196 565.607 445.37 C 568.015 445.607 570.038 446.53 570.862 449.16 C 571.173 450.221 571.917 450.598 572.894 449.726 C 573.616 449.073 574.212 449.193 574.954 449.831 C 575.419 450.253 576.267 450.61 576.839 450.493 C 579.521 449.93 581.908 451.095 584.392 451.616 C 585.539 451.862 586.33 452.248 587.077 450.93 C 587.323 450.493 588.395 450.056 588.784 450.251 C 589.255 450.481 589.77 451.526 589.599 451.967 C 589.273 452.812 588.592 453.969 587.85 454.151 C 584.865 454.906 581.794 455.293 578.768 455.898 C 577.513 456.15 576.222 456.455 575.086 457.015 C 573.723 457.683 573.826 459.041 574.769 460.197 C 575.622 461.258 576.659 462.6 576.659 463.808 C 576.698 468.488 579.718 471.37 582.339 474.596 C 583.868 476.46 585.273 478.452 586.505 480.519 C 586.972 481.308 586.956 482.473 586.891 483.453 C 586.77 485.013 587.229 486.254 588.464 487.14 C 589.228 487.707 590.087 488.144 590.896 488.639 C 593.548 490.215 595.123 492.497 595.453 495.574 C 595.639 497.435 596.262 499.023 597.599 500.392 C 598.668 501.498 598.53 504.34 597.503 505.389 C 595.873 507.061 596.067 507.717 598.261 508.715 C 599.375 509.224 600.39 509.94 601.455 510.555 C 602 510.866 602.548 511.18 603.093 511.489 C 603.434 510.893 603.821 510.303 604.112 509.68 C 604.792 508.197 605.124 506.483 606.114 505.27 C 607.21 503.945 607.3 503.274 606.161 501.893 C 605.511 501.117 605.568 499.418 605.906 498.328 C 606.114 497.651 607.468 497.006 608.34 496.959 C 609.718 496.896 609.774 498.19 609.978 499.277 C 610.041 499.589 610.919 499.964 611.413 499.945 C 611.914 499.922 612.375 499.211 612.863 499.211 C 613.678 499.209 614.829 499.277 615.221 499.792 C 615.541 500.215 615.149 501.419 614.741 502.103 C 613.894 503.598 612.74 504.918 611.923 506.426 C 611.601 506.989 611.805 507.852 611.769 508.58 C 612.543 508.356 613.376 508.268 614.041 507.852 C 614.616 507.477 614.976 506.749 615.476 506.204 C 615.925 505.707 616.366 505.176 616.917 504.811 C 618.954 503.475 620.302 504.161 620.324 506.594 C 620.338 509.048 620.548 511.364 621.989 513.52 C 622.933 514.929 623.002 516.555 621.756 518.077 C 621.319 518.632 621.319 519.54 621.129 520.304 C 620.725 521.913 620.51 523.599 619.889 525.109 C 618.648 528.168 618.636 531.038 620.608 533.761 C 620.889 534.151 621.687 534.532 622.067 534.402 C 623.05 534.064 624.266 531.344 623.912 530.346 C 623.329 528.731 623.85 527.407 624.557 525.995 C 626.322 522.436 629.818 521.625 633.149 520.657 C 633.65 520.51 634.621 521.176 635.054 521.718 C 638.479 526.145 638.236 530.269 634.534 534.388 C 633.144 535.937 631.822 537.564 630.603 539.256 C 630.045 540.038 629.542 540.389 628.577 540.368 C 624.572 540.305 620.575 540.305 616.566 540.305 C 615.694 540.292 614.822 540.346 613.918 540.368 C 613.855 542.051 613.801 543.549 613.732 545.138 C 611.381 545.075 609.263 545.035 607.096 544.979 L 606.941 539.403 L 599.966 539.589 C 599.908 541.264 599.87 542.869 599.825 544.407 C 599.513 544.49 599.397 544.548 599.301 544.553 C 597.947 544.584 596.592 544.611 595.241 544.628 C 593.144 544.682 593.18 544.685 593.14 542.516 C 593.119 540.491 593.036 538.472 592.969 536.282 C 591.58 536.213 590.096 536.125 588.511 536.047 L 588.395 531.901 C 587.841 531.889 587.373 531.964 586.96 531.847 C 585.615 531.529 584.015 531.515 584.123 529.39 C 584.141 528.908 583.493 527.934 583.244 527.956 C 581.36 528.192 580.725 526.322 579.313 525.771 C 578.139 525.316 577.693 523.18 578.181 522.409 C 578.751 521.496 579.242 520.528 579.817 519.482 C 580.38 519.36 581.414 519.432 581.812 518.961 C 582.879 517.67 584.228 517.942 585.524 517.922 C 586.586 517.906 587.624 517.976 588.8 518.009 C 588.841 516.306 588.863 514.761 588.895 513.203 C 587.579 512.834 585.995 513.712 585.257 512.016 C 585.198 511.873 584.616 511.953 584.287 511.935 C 583.589 511.879 582.852 511.839 582.103 511.776 L 582.01 508.556 C 579.949 508.497 577.935 508.454 575.817 508.394 C 575.727 510.588 575.626 512.702 575.506 514.809 L 570.137 514.965 C 570.014 516.319 569.904 517.547 569.787 518.859 C 568.391 518.982 567.866 519.935 567.854 521.167 C 567.854 522.337 567.806 523.59 568.192 524.663 C 569.474 528.243 569.424 531.967 569.55 535.668 C 569.57 536.2 569.31 536.91 568.927 537.216 C 568.723 537.401 567.741 537.09 567.513 536.746 C 565.97 534.415 564.375 532.134 564.55 529.055 C 564.735 526.074 564.594 523.072 564.393 520.087 C 564.33 519.051 563.725 518.036 563.369 517.023 C 563.097 517.086 562.809 517.128 562.551 517.191 C 562.503 518.011 562.614 518.904 562.365 519.672 C 562.089 520.499 561.661 521.484 560.984 521.958 C 560.058 522.568 559.468 521.667 558.8 520.968 C 557.667 519.782 557.539 518.431 557.518 516.933 C 557.467 514.02 557.35 513.883 554.704 512.879 C 554.89 508.04 555.07 503.154 555.268 498.142 C 551.409 498.061 547.7 498.01 543.997 497.84 C 543.275 497.797 542.076 497.369 541.978 496.905 C 541.783 496.045 541.881 494.733 542.415 494.139 C 543.601 492.833 543.497 491.824 542.498 490.58 C 541.153 488.908 541.339 488.263 543.002 486.829 C 543.937 486.011 544.791 484.968 545.396 483.875 C 546.579 481.723 547.682 479.513 548.574 477.227 C 549.033 476.046 549.013 474.668 549.135 473.386 C 549.215 472.419 549.165 471.442 549.242 470.458 C 549.324 469.252 549.701 468.022 549.573 466.83 C 549.378 464.895 548.868 463.019 548.449 461.111 C 548.281 460.335 548.002 459.59 547.886 458.819 C 547.76 458.007 547.622 457.163 547.754 456.387 C 548.239 453.54 547.652 452.456 544.862 451.611 C 542.304 450.829 540.198 449.493 538.466 447.407 C 537.634 446.385 536.339 445.472 535.077 445.094 C 532.405 444.282 529.772 443.659 528.301 440.912 C 527.698 439.791 526.779 439.878 525.979 440.813 C 525.614 441.247 525.229 441.673 524.973 442.164 C 524.334 443.377 523.312 443.98 522.003 444.1 C 520.549 444.231 519.07 444.394 517.62 444.351 C 515.589 444.307 513.453 442.758 513.069 441.221 C 512.883 440.504 512.96 439.465 511.732 439.755 C 510.549 440.028 510.037 440.792 510.387 442.023 C 510.645 442.922 510.9 443.824 511.218 444.923 C 503.97 444.492 496.912 444.073 489.837 443.657 C 489.819 443.051 489.778 442.662 489.799 442.276 C 490.299 434.678 490.802 427.076 491.312 419.482 C 492.064 408.061 492.824 396.633 493.577 385.213 C 494.332 373.666 495.075 362.144 495.839 350.594 C 496.579 339.406 497.309 328.195 498.113 317.002 C 498.682 309.015 499.053 301.001 500.045 293.076 C 501.933 277.976 504.194 262.927 506.313 247.842 C 509.255 226.915 512.209 205.973 515.166 185.042 C 517.667 167.289 520.175 149.543 522.695 131.8 C 524.379 119.969 526.089 108.141 527.782 96.298 L 529.466 96.249 C 529.778 96.357 530.059 96.519 530.379 96.561 C 537.307 97.453 544.239 98.401 551.169 99.194 C 565.464 100.815 579.736 102.482 594.049 103.868 C 606.845 105.1 619.661 106.133 632.487 106.978 C 644.909 107.796 657.379 108.413 669.83 108.857 C 680.193 109.231 690.574 109.249 700.947 109.381 C 702.007 109.402 702.501 109.686 702.81 110.775 C 702.975 111.382 703.164 111.985 703.352 112.584 C 703.278 114.144 703.265 115.694 703.834 117.185 C 703.987 117.584 704.448 117.974 704.679 118.229 C 705.024 118.606 705.242 118.933 705.365 119.229 C 705.39 119.738 705.302 120.256 705.054 120.475 C 703.96 121.41 703.46 122.411 703.316 123.459 C 702.875 124.588 702.741 125.754 702.795 127.024 C 702.852 128.459 703.729 128.622 704.443 129.232 C 704.628 129.766 704.791 130.294 704.838 130.841 C 704.94 131.926 703.571 132.112 702.978 132.777 C 702.619 133.172 702.585 134.017 703.047 134.358 C 703.121 134.422 703.391 134.569 703.664 134.703 C 703.823 134.907 704.053 135.078 704.314 135.23 C 705.309 137.34 707.055 139.911 706.492 141.99 C 706.327 142.319 706.129 142.676 705.872 143.011 C 705.802 143.125 705.722 143.257 705.659 143.386 C 705.641 143.395 705.636 143.406 705.614 143.428 C 704.769 144.222 704.245 145.309 704.05 146.436 C 703.987 146.555 703.946 146.682 703.966 146.853 C 703.966 146.862 703.966 146.88 703.966 146.897 C 703.966 146.9 703.966 146.9 703.966 146.903 C 703.951 147.047 703.966 147.167 703.993 147.281 C 704.128 148.953 704.101 150.84 703.745 152.436 C 703.451 153.749 702.31 154.058 702.22 155.43 C 702.169 156.278 703.424 157.161 703.859 157.737 C 704.173 158.162 704.589 158.411 705.045 158.611 C 705.387 158.978 705.731 159.361 706.049 159.75 C 706.408 160.709 706.647 161.491 707.337 162.302 C 707.978 163.055 708.502 163.756 708.467 164.787 C 708.458 165.236 708.404 165.74 708.527 166.191 C 708.955 167.762 709.673 168.942 710.699 169.943 C 711.016 170.772 711.349 171.623 711.663 172.45 C 712.14 173.708 713.039 174.788 714.357 174.571 C 715.088 174.467 715.681 173.304 716.292 172.579 C 716.477 172.327 716.529 171.95 716.607 171.632 C 716.918 170.47 717.598 169.691 718.53 169.371 C 718.884 169.398 719.228 169.472 719.59 169.682 C 719.969 169.916 720.276 170.108 720.693 170.252 C 721.67 170.626 722.883 170.293 723.995 170.314 C 724.255 170.419 724.513 170.53 724.75 170.64 C 724.866 170.704 724.972 170.749 725.079 170.808 C 725.517 171.204 726.095 171.494 726.745 171.608 C 727.323 171.716 727.829 171.327 728.252 170.938 C 728.441 170.821 728.656 170.677 728.851 170.5 C 730.286 169.203 735.515 170.216 736.866 171.812 C 736.817 172.466 736.617 173.157 736.985 173.907 C 737.238 174.416 737.549 175.033 738.238 175.015 C 738.439 175.012 738.645 174.958 738.81 174.895 C 739.475 175.108 740.263 174.883 741.055 174.143 C 741.546 173.681 741.837 172.968 742.366 172.603 C 743.052 172.13 743.96 171.534 744.677 171.639 C 745.255 171.713 745.988 172.711 746.127 173.418 C 746.506 175.344 746.755 177.312 746.806 179.273 C 746.909 183.518 747.927 187.512 749.731 191.331 C 751.123 194.279 752.609 197.221 753.775 200.256 C 754.626 202.497 755.453 204.897 755.528 207.253 C 755.774 214.331 758.338 220.623 761.346 226.853 C 762.82 229.926 764.066 233.149 765.086 236.403 C 766.895 242.285 766.888 247.912 762.392 252.875 C 760.708 254.739 759.519 257.058 758.125 259.177 C 758.015 259.356 757.939 259.518 757.88 259.677 C 757.568 260.215 757.289 260.759 757.074 261.333 C 756.78 262.166 756.888 263.793 758.228 263.622 C 759.102 263.503 759.776 263.047 760.339 262.436 C 760.61 262.361 760.861 262.199 761.106 261.956 C 762.206 260.92 763.222 259.796 764.232 258.673 C 766.292 256.366 768.788 254.58 771.907 255.383 C 774.966 256.189 777.704 255.902 780.452 254.694 C 785.815 252.327 791.091 249.763 796.498 247.54 C 805.673 243.797 814.688 243.438 823.193 249.475 C 823.42 249.649 823.675 249.775 823.897 249.93 C 833.439 256.837 844.432 259.437 855.874 260.686 C 857.219 260.77 858.438 261.015 859.412 262.079 Z M 537.058 431.256 C 536.572 431.442 536.168 431.846 535.713 432.119 C 535.077 432.505 534.422 432.861 533.777 433.228 C 534.503 433.434 535.213 433.665 535.946 433.871 C 536.099 433.914 536.279 433.847 536.447 433.833 C 536.447 433.791 536.447 433.769 536.447 433.755 C 537.061 433.739 537.759 433.892 538.275 433.661 C 538.997 433.35 539.739 432.823 540.174 432.181 C 540.342 431.933 539.718 430.684 539.404 430.66 C 538.631 430.617 537.813 430.962 537.058 431.256 Z M 599.081 480.508 C 598.842 480.9 598.956 481.496 598.893 481.994 C 598.512 485.187 599.839 488.063 600.594 491.047 C 600.675 491.359 601.185 491.86 601.287 491.817 C 601.703 491.632 602.243 491.329 602.351 490.955 C 602.728 489.67 602.934 488.333 603.169 487.225 C 602.698 484.831 602.342 482.667 601.823 480.546 C 601.647 479.827 601.065 479.204 600.675 478.521 C 600.142 479.183 599.51 479.786 599.081 480.508 Z" style=""/>
  <path fill="blue" data-riding="Selkirk—Interlake—Eastman" d="M 570.772 516.238 C 573.13 516.169 574.859 516.121 576.702 516.052 C 576.809 513.943 576.896 511.875 577.013 509.647 C 578.275 509.703 579.445 509.748 580.671 509.793 C 580.701 510.866 580.728 511.864 580.749 513.068 C 581.453 513.096 582.106 513.11 582.76 513.143 C 583.442 513.191 584.278 512.865 584.443 514.02 C 584.464 514.179 585.195 514.293 585.606 514.333 C 586.205 514.398 586.819 514.396 587.415 514.423 C 587.799 516.624 587.706 516.729 585.768 516.675 C 584.08 516.633 582.256 516.151 580.956 517.861 C 580.77 518.101 580.063 517.886 579.647 518.038 C 579.165 518.224 578.571 518.476 578.331 518.874 C 577.652 520.007 577.127 521.205 576.608 522.416 C 576.072 523.635 577.376 526.257 578.766 527.095 C 579.344 527.438 579.799 528.003 580.315 528.467 C 580.378 528.53 580.44 528.725 580.501 528.725 C 582.612 528.677 582.706 530.41 583.511 531.746 C 584.074 532.662 585.705 532.932 587.137 533.627 C 587.175 534.541 587.202 535.865 587.241 537.32 C 588.802 537.345 590.237 537.369 591.763 537.383 C 591.84 540.158 591.927 542.84 591.999 545.758 C 594.935 545.689 597.889 545.595 601.051 545.506 C 601.11 544.068 601.179 542.448 601.239 540.76 C 602.71 540.722 604.094 540.697 605.631 540.637 C 605.693 542.45 605.729 544.223 605.798 546.193 C 608.891 546.243 611.854 546.3 614.945 546.348 C 615.032 544.736 615.122 543.166 615.194 541.773 C 619.829 541.644 624.365 541.515 629.09 541.383 C 628.766 542.654 628.401 543.562 628.329 544.461 C 628.292 545.077 628.545 546.066 628.964 546.264 C 629.533 546.558 630.648 546.501 631.073 546.108 C 631.978 545.296 632.664 544.221 633.296 543.166 C 634.357 541.41 637.443 539.897 639.39 540.314 C 640.493 540.523 640.735 541.341 640.031 542.258 C 639.594 542.843 639.057 543.412 638.851 544.073 C 638.515 545.227 638 545.982 636.676 546.039 C 636.364 546.061 635.99 546.384 635.741 546.677 C 633.998 548.739 632.178 550.755 630.594 552.964 C 629.575 554.371 628.406 555.896 629.776 557.879 C 630.055 558.296 629.692 559.285 629.395 559.866 C 629.17 560.333 628.583 560.627 628.143 560.974 C 625.788 562.814 625.806 563.527 628.265 565.181 C 629.264 565.861 629.401 566.939 628.386 567.288 C 625.701 568.192 626.075 570.382 626.12 572.333 C 626.219 577.464 626.514 582.587 626.705 587.72 C 626.726 588.058 626.681 588.412 626.768 588.748 C 627.951 593.397 629.755 594.188 633.321 591.624 C 634.468 590.794 635.693 590.069 636.786 589.197 C 638.606 587.762 639.345 585.907 638.869 583.517 C 638.294 580.583 637.898 577.587 639.021 574.675 C 639.252 574.079 639.848 573.276 640.355 573.219 C 640.865 573.156 641.526 573.842 642.017 574.315 C 642.898 575.164 643.644 576.159 644.559 576.977 C 646.056 578.309 647.549 579.615 646.524 582.096 C 648.782 582.226 650.781 582.336 652.941 582.459 C 653.079 581.56 653.195 580.803 653.349 579.819 C 654.232 579.877 655.152 579.915 656.159 579.972 C 656.252 580.628 656.339 581.153 656.413 581.71 C 657.87 581.872 659.262 582.013 660.839 582.157 C 660.802 582.959 660.893 583.73 660.764 584.484 C 660.521 585.925 660.961 586.449 662.516 586.467 C 665.779 586.498 669.047 586.743 672.317 586.906 C 672.634 586.926 672.976 587.025 673.503 587.121 C 673.409 588.919 673.326 590.68 673.227 592.619 C 672.227 592.588 671.342 592.556 670.208 592.534 C 669.995 594.766 669.769 597.028 669.536 599.488 C 667.879 599.413 666.277 599.347 664.502 599.276 C 664.419 600.959 664.329 602.559 664.245 604.225 C 663.511 604.243 662.866 604.267 662.133 604.288 C 662.109 603.431 662.085 602.662 662.064 601.672 C 659.766 601.609 657.549 601.513 655.182 601.432 C 655.059 602.871 654.961 604.139 654.838 605.609 C 653.399 605.552 652.009 605.502 650.619 605.504 C 649.223 605.507 647.809 605.567 646.311 605.618 C 646.227 607.102 646.134 608.543 646.05 609.962 C 643.494 610.025 641.083 610.106 638.375 610.163 C 638.422 608.333 638.447 606.61 638.509 604.657 C 635.648 604.531 632.828 604.219 630.064 604.372 C 628.958 604.435 627.87 605.432 626.842 606.116 C 626.079 606.622 625.53 606.601 624.988 605.854 C 624.865 605.67 624.668 605.543 624.545 605.354 C 622.948 602.99 620.737 601.951 617.713 602.532 C 617.552 603.527 617.357 604.725 617.159 605.999 C 616.552 606.013 615.989 606.029 615.32 606.053 C 615.093 607.122 614.871 608.144 614.592 609.474 C 612.48 609.319 610.308 609.243 608.165 608.962 C 607.623 608.89 607.012 608.228 606.746 607.671 C 606.062 606.268 605.07 605.486 603.494 605.412 C 603.084 605.388 602.356 605.247 602.317 605.052 C 601.97 603.395 600.733 603.482 599.474 603.35 C 599.001 603.294 598.539 602.793 598.129 602.436 C 597.138 601.598 596.275 601.376 595.204 602.436 C 594.686 602.961 593.785 603.084 592.646 603.548 C 592.958 599.491 593.269 596.007 593.455 592.547 C 593.578 590.024 593.628 587.489 593.462 584.99 C 593.371 583.735 592.898 582.42 592.263 581.314 C 588.773 575.382 586.001 569.016 581.402 563.704 C 579.029 560.968 576.471 559.024 572.753 558.751 C 570.568 558.592 570.206 558.077 570.96 556.111 C 571.542 554.59 570.67 553.67 569.897 552.63 C 568.801 551.196 568.885 550.425 570.388 549.464 C 570.772 549.221 571.491 549.152 571.881 549.335 C 573.403 550.096 574.295 549.593 574.981 548.148 C 575.668 546.693 576.527 545.281 577.289 543.84 C 578.777 541.006 578.223 539.783 575.296 538.237 C 573.984 537.531 572.741 536.365 571.892 535.125 C 570.883 533.657 570.491 531.901 572.132 530.385 C 572.369 530.161 572.378 529.681 572.438 529.307 C 572.507 528.869 572.358 528.246 572.591 527.994 C 575.023 525.37 572.585 523.204 572 520.878 C 571.554 519.432 571.206 517.969 570.772 516.238 Z M 636.212 555.878 C 637.011 554.443 637.557 552.858 638.113 551.294 C 638.272 550.848 638.051 550.243 638.033 549.734 C 637.593 550.001 636.948 550.162 636.759 550.546 C 636.044 551.98 635.511 553.496 634.825 554.952 C 634.666 555.27 634.173 555.459 633.859 555.719 C 633.53 556.007 633.2 556.283 632.889 556.591 C 633.254 556.834 633.596 557.079 634.216 557.505 C 634.95 556.924 635.849 556.541 636.212 555.878 Z M 647.428 548.193 C 647.815 548.008 647.91 547.229 648.136 546.704 C 647.62 546.527 647.027 546.135 646.599 546.267 C 645.643 546.567 644.744 547.081 643.884 547.594 C 643.537 547.798 643.333 548.26 643.073 548.595 C 643.405 548.793 643.755 549.015 644.052 549.224 C 645.301 548.874 646.428 548.67 647.428 548.193 Z" style=""/>
  <path fill="blue" data-riding="Regina—Wascana" d="M 352.211 696.676 C 352.211 704.117 352.211 711.489 352.211 718.915 C 362.823 718.915 373.414 718.915 384.03 718.915 C 384.03 736.851 384.03 754.713 384.03 772.598 C 352.571 772.598 321.129 772.598 289.657 772.598 C 289.657 753.146 289.657 733.702 289.657 714.212 C 310.479 708.366 331.317 702.53 352.211 696.676 Z" style=""/>
  <path fill="blue" data-riding="Regina—Lewvan" d="M 226.697 724.508 C 226.697 698.638 226.697 672.8 226.697 646.9 C 226.849 646.9 226.999 646.9 227.149 646.9 C 240.882 646.9 254.614 646.897 268.344 646.91 C 268.571 646.91 268.84 647.016 269.024 647.158 C 269.531 647.546 270.019 647.965 270.485 648.399 C 270.619 648.526 270.73 648.751 270.733 648.93 C 270.751 650.38 270.751 651.831 270.735 653.284 C 270.733 653.581 270.803 653.736 271.105 653.837 C 271.845 654.101 272.566 654.403 273.303 654.649 C 273.531 654.729 273.629 654.845 273.603 655.081 C 273.593 655.179 273.6 655.28 273.6 655.378 C 273.6 666.949 273.603 678.514 273.593 690.085 C 273.593 690.429 273.518 690.786 273.393 691.109 C 272.633 693.097 271.845 695.047 271.077 697.017 C 270.997 697.224 270.929 697.454 270.929 697.674 C 270.922 704.647 270.924 711.626 270.924 718.605 C 270.924 718.674 270.932 718.765 270.94 718.899 C 276.843 718.899 282.735 718.899 288.672 718.899 C 288.672 736.828 288.672 754.682 288.672 772.58 C 278.523 772.58 268.37 772.58 258.156 772.58 C 258.156 762.227 258.156 751.874 258.156 741.498 C 252.791 741.498 247.488 741.498 242.138 741.498 C 242.138 734.938 242.138 728.412 242.138 721.844 C 236.967 722.739 231.845 723.618 226.697 724.508 Z" style=""/>
  <path fill="blue" data-riding="Charleswood—St. James—Assiniboia—Headingley" d="M 780.867 645.637 C 785.551 645.637 790.107 645.637 794.755 645.637 C 794.755 646.278 794.755 646.855 794.755 647.523 C 795.546 647.523 796.256 647.523 797.079 647.523 C 796.943 649.208 796.812 650.773 796.674 652.441 C 796.031 652.441 795.428 652.441 794.725 652.441 C 794.521 657.902 794.314 663.273 794.109 668.734 C 793.079 668.734 792.116 668.734 791.091 668.734 C 790.622 677.186 790.159 685.545 789.691 693.984 C 787.651 693.984 785.655 693.984 783.585 693.984 C 783.555 694.465 783.531 694.867 783.499 695.364 C 781.16 695.364 778.827 695.364 776.466 695.364 C 776.419 695.67 776.389 695.887 776.348 696.163 C 773.918 696.163 771.53 696.163 769.108 696.163 C 769.054 696.498 769.009 696.766 768.955 697.111 C 762.08 697.111 755.205 697.111 748.3 697.111 C 748.229 697.385 748.175 697.599 748.101 697.88 C 743.389 697.88 738.68 697.88 733.912 697.88 C 733.878 698.238 733.848 698.536 733.819 698.834 C 733.289 699.006 722.444 699.048 721.52 698.868 C 722.612 680.01 723.703 661.135 724.797 642.188 C 728.107 642.188 731.32 642.188 734.605 642.188 C 734.629 641.732 734.651 641.328 734.679 640.83 C 735.489 640.746 736.305 640.8 737.116 640.79 C 737.941 640.783 738.767 640.788 739.592 640.788 C 740.41 640.788 741.231 640.788 742.066 640.788 C 742.108 640.325 742.145 639.953 742.187 639.504 C 751.627 639.504 761.028 639.504 770.505 639.504 C 770.505 638.94 770.505 638.427 770.505 637.949 C 771.119 637.762 779.309 637.693 780.842 637.856 C 780.889 638.676 780.857 639.521 780.862 640.372 C 780.867 641.244 780.862 642.126 780.862 642.988 C 780.867 643.836 780.867 644.686 780.867 645.637 Z" style=""/>
  <path fill="blue" data-riding="Kildonan—St. Paul" d="M 876.703 609.868 C 876.001 609.868 875.392 609.868 874.719 609.868 C 874.719 611.972 874.719 614.003 874.719 616.136 C 873.739 616.176 872.822 616.151 871.905 616.156 C 870.976 616.161 870.05 616.156 869.121 616.156 C 868.197 616.156 867.273 616.156 866.26 616.156 C 866.26 617.428 866.26 618.625 866.26 619.904 C 864.947 619.904 863.722 619.904 862.524 619.904 C 862.325 620.572 862.307 630.515 862.495 631.286 C 863.626 631.286 864.777 631.286 866.028 631.286 C 865.873 632.065 865.609 632.775 865.629 633.457 C 865.649 634.154 865.949 634.844 866.152 635.65 C 865.385 635.65 864.678 635.65 863.894 635.65 C 863.894 636.335 863.894 636.941 863.894 637.656 C 863.515 637.656 863.214 637.656 862.914 637.656 C 858.606 637.656 854.299 637.668 849.994 637.644 C 849.435 637.639 849.132 637.819 848.826 638.294 C 848.36 639.029 848.104 639.763 848.195 640.611 C 848.235 640.988 848.203 641.379 848.203 641.791 C 847.227 641.882 846.396 641.919 845.583 641.308 C 844.472 640.475 843.259 639.778 842.104 638.997 C 841.909 638.863 841.648 638.634 841.655 638.44 C 841.68 637.922 841.34 637.782 840.99 637.609 C 839.201 636.695 837.414 635.773 835.628 634.854 C 834.573 634.31 833.514 633.775 832.471 633.216 C 832.112 633.021 831.841 633.001 831.493 633.267 C 830.746 633.822 829.978 634.344 829.189 634.832 C 828.805 635.071 828.701 635.364 828.711 635.791 C 828.736 636.9 828.718 638.006 828.716 639.127 C 828.716 639.277 828.694 639.415 828.672 639.682 C 827.395 639.043 826.185 638.44 824.933 637.814 C 824.667 638.329 824.421 638.79 824.147 639.329 C 820.737 637.525 817.373 635.744 813.963 633.938 C 815.333 631.557 816.664 629.236 818.039 626.843 C 816.543 626.077 815.079 625.338 813.547 624.557 C 813.547 621.703 813.547 618.822 813.547 615.833 C 811.065 615.799 808.655 615.833 806.26 615.814 C 806.08 615.237 806.006 575.047 806.171 573.667 C 806.755 573.489 828.336 573.462 829.123 573.649 C 829.142 574.068 829.162 574.5 829.182 574.946 C 829.413 575.098 829.643 575.281 829.874 575.426 C 845.216 585.879 860.553 596.334 875.907 606.778 C 876.521 607.199 876.797 607.623 876.708 608.35 C 876.659 608.801 876.703 609.269 876.703 609.868 Z" style=""/>
  <path fill="blue" data-riding="Winnipeg South" d="M 823.94 726.878 C 814.251 732.199 804.73 737.43 795.196 742.664 C 795.014 742.077 794.979 725.336 795.157 724.417 C 795.694 724.417 796.248 724.417 796.78 724.417 C 796.965 723.798 797.017 703.42 796.847 702.35 C 796.302 702.35 795.748 702.35 795.137 702.35 C 795.1 702.094 795.051 701.899 795.051 701.707 C 795.046 699.566 795.058 697.427 795.038 695.29 C 795.033 694.827 795.191 694.605 795.588 694.398 C 798.012 693.139 800.425 691.863 802.84 690.581 C 803.18 690.401 803.522 690.217 803.843 690.005 C 804.821 689.349 805.871 688.768 806.511 687.649 C 806.529 687.809 806.563 687.969 806.563 688.132 C 806.568 689.704 806.583 691.266 806.558 692.848 C 806.548 693.388 806.659 693.859 806.94 694.315 C 807.238 694.79 807.5 695.29 807.805 695.84 C 808.044 695.714 808.246 695.616 808.438 695.507 C 809.648 694.822 810.866 694.13 812.066 693.432 C 812.438 693.213 812.807 693.075 813.239 693.161 C 814.409 693.356 815.429 693.009 816.476 692.476 C 822.075 689.556 827.706 686.7 833.324 683.82 C 833.526 683.716 833.735 683.623 833.992 683.499 C 834.1 683.741 834.204 683.938 834.285 684.145 C 835.463 687.144 836.631 690.148 837.819 693.137 C 837.989 693.563 838.193 694.002 838.489 694.327 C 840.339 696.453 841.67 698.863 842.663 701.493 C 843.346 703.296 844.171 705.048 844.935 706.825 C 845.034 707.054 845.147 707.279 845.283 707.564 C 846.078 707.042 846.818 706.559 847.68 705.99 C 847.68 707.375 847.68 708.602 847.68 709.905 C 848.437 709.905 849.119 709.905 849.844 709.905 C 849.974 710.689 849.979 711.322 849.553 712.01 C 848.846 713.158 847.932 713.912 846.707 714.489 C 843.691 715.874 840.736 717.409 837.737 718.845 C 837.195 719.102 836.964 719.39 836.998 720.008 C 837.055 721.038 836.976 722.076 837.025 723.106 C 837.055 723.734 836.855 724.074 836.291 724.372 C 832.415 726.415 828.561 728.5 824.699 730.572 C 824.48 730.691 824.248 730.792 823.933 730.944 C 823.94 729.582 823.94 728.332 823.94 726.878 Z" style=""/>
  <path fill="blue" data-riding="Saint Boniface—Saint Vital" d="M 855.127 702.372 C 854.279 702.372 853.483 702.407 852.69 702.36 C 851.963 702.313 851.357 702.51 850.751 702.924 C 849.299 703.952 847.801 704.91 846.32 705.896 C 846.111 706.037 845.891 706.165 845.632 706.327 C 845.494 706.024 845.374 705.768 845.263 705.512 C 844.166 702.954 843.08 700.394 841.971 697.851 C 841.788 697.422 841.574 696.991 841.271 696.668 C 839.418 694.563 838.154 692.161 837.247 689.522 C 836.503 687.356 835.596 685.256 834.761 683.108 C 834.667 682.876 834.563 682.644 834.433 682.336 C 829.167 685.047 823.95 687.718 818.697 690.397 C 818.127 689.606 817.642 688.822 817.393 687.92 C 817.332 687.686 817.369 687.422 817.408 687.168 C 817.46 686.843 817.667 686.678 818.007 686.705 C 818.288 686.737 818.566 686.779 818.84 686.828 C 819.345 686.929 819.843 687.085 820.353 687.132 C 821.604 687.274 822.45 686.464 822.531 685.19 C 822.585 684.325 822.302 683.637 821.757 683.007 C 821.489 682.696 821.222 682.376 820.996 682.031 C 820.703 681.592 820.722 681.254 820.996 680.892 C 821.282 680.532 821.587 680.422 822.09 680.611 C 822.39 680.732 822.662 680.946 822.915 681.153 C 823.551 681.681 824.231 682.028 825.096 681.974 C 826.057 681.895 826.73 680.934 826.508 679.99 C 826.04 677.989 824.608 676.831 822.901 676.026 C 822.127 675.658 821.176 675.769 820.362 676.22 C 820.069 676.373 819.803 676.58 819.515 676.76 C 819.017 677.051 818.586 677.058 818.381 676.799 C 818.11 676.452 818.157 675.619 818.47 675.296 C 819.118 674.628 819.907 674.48 820.796 674.611 C 821.585 674.724 822.376 674.84 823.169 674.867 C 824.574 674.919 825.72 674.352 826.557 673.209 C 826.957 672.669 827.343 672.13 827.74 671.597 C 828.304 670.829 828.622 669.961 828.829 669.057 C 829.041 668.12 828.617 667.403 827.895 666.842 C 827.797 666.775 827.664 666.689 827.548 666.689 C 826.759 666.694 825.961 666.433 825.177 666.741 C 824.31 667.1 823.406 667.256 822.477 667.357 C 822.075 667.408 821.774 667.305 821.491 667.044 C 820.764 666.398 820.621 665.358 821.144 664.55 C 822.097 663.079 823.036 661.603 824.004 660.139 C 824.623 659.208 824.714 658.293 824.066 657.335 C 823.795 656.926 823.595 656.463 823.344 656.051 C 823.063 655.588 822.999 655.075 823.093 654.563 C 823.305 653.446 823.605 653.254 824.455 653.163 C 825.296 653.067 826.151 653.084 827.001 653.057 C 827.233 653.05 827.464 653.06 827.698 653.055 C 828.11 653.047 828.588 653.163 828.913 652.995 C 829.226 652.843 829.381 652.37 829.643 651.997 C 829.921 652.101 830.224 652.214 830.554 652.34 C 830.483 652.643 830.424 652.889 830.367 653.136 C 830.318 653.355 830.268 653.577 830.207 653.863 C 836.67 655.509 843.08 657.143 849.553 658.791 C 849.553 659.619 849.553 660.43 849.553 661.307 C 850.332 661.667 851.066 662.027 851.818 662.342 C 852.241 662.515 852.471 662.793 852.552 663.234 C 852.636 663.692 852.786 664.126 852.919 664.616 C 853.651 664.671 854.363 664.752 855.127 664.814 C 855.127 677.272 855.127 689.766 855.127 702.372 Z" style=""/>
  <path fill="blue" data-riding="Elmwood—Transcona" d="M 832.015 633.93 C 834.938 635.433 837.846 636.929 840.776 638.437 C 840.704 639.014 841.022 639.309 841.47 639.598 C 842.892 640.482 844.289 641.409 845.684 642.335 C 846.017 642.562 846.352 642.683 846.764 642.668 C 847.478 642.644 848.195 642.663 849.003 642.663 C 849.003 641.823 849.045 641.057 848.991 640.295 C 848.944 639.637 849.279 639.164 849.607 638.676 C 849.679 638.568 849.859 638.477 849.987 638.477 C 851.682 638.462 853.377 638.467 855.154 638.467 C 855.154 640.943 855.154 643.353 855.154 645.852 C 855.524 645.869 855.822 645.889 856.12 645.889 C 861.689 645.904 867.258 645.904 872.827 645.904 C 873.007 645.904 873.189 645.928 873.367 645.889 C 873.835 645.825 874.052 646.056 874.239 646.453 C 875.084 648.217 875.934 649.984 876.821 651.729 C 877.159 652.397 877.314 653.052 877.297 653.814 C 877.258 655.405 877.285 657.007 877.285 658.592 C 877.285 658.848 877.285 659.094 877.285 659.442 C 874.485 659.442 871.767 659.442 868.971 659.442 C 868.971 661.958 868.971 664.363 868.971 666.819 C 864.626 666.819 860.361 666.819 855.997 666.819 C 855.997 665.871 855.997 664.957 855.997 664.005 C 855.142 663.931 854.38 663.862 853.557 663.796 C 853.456 663.431 853.328 663.066 853.266 662.692 C 853.183 662.184 852.929 661.874 852.443 661.689 C 851.889 661.482 851.369 661.189 850.822 660.965 C 850.479 660.824 850.364 660.612 850.376 660.255 C 850.401 659.577 850.381 658.87 850.381 658.138 C 843.979 656.507 837.624 654.89 831.207 653.254 C 831.313 652.771 831.412 652.33 831.52 651.84 C 831.298 651.744 831.101 651.63 830.887 651.581 C 829.931 651.295 829.123 650.775 828.364 650.135 C 827.378 649.299 826.37 648.501 825.338 647.722 C 824.613 647.178 824.446 646.414 824.414 645.618 C 824.406 645.361 824.658 645.053 824.864 644.851 C 825.079 644.642 825.389 644.529 825.648 644.371 C 826.36 643.908 827.075 643.467 827.772 642.986 C 828.642 642.395 829.108 641.503 829.502 640.574 C 829.551 640.448 829.591 640.32 829.588 640.211 C 829.571 638.898 829.559 637.592 829.514 636.276 C 829.502 635.84 829.613 635.554 829.997 635.303 C 830.682 634.867 831.33 634.396 832.015 633.93 Z" style=""/>
  <path fill="blue" data-riding="Winnipeg South Centre" d="M 790.507 694.007 C 790.958 685.808 791.406 677.733 791.857 669.557 C 792.872 669.557 793.838 669.557 794.881 669.557 C 794.932 668.431 794.979 667.381 795.031 666.243 C 795.822 666.243 796.566 666.191 797.3 666.258 C 797.961 666.309 798.318 666.088 798.614 665.489 C 799.264 664.168 799.299 664.205 800.721 664 C 802.251 663.784 803.784 663.577 805.309 663.328 C 805.725 663.273 806.058 663.35 806.408 663.542 C 807.036 663.902 807.699 664.202 808.31 664.572 C 808.818 664.89 809.289 664.915 809.836 664.713 C 810.511 664.456 811.211 664.269 811.903 664.062 C 812.046 664.02 812.199 664.01 812.381 663.981 C 812.977 664.752 813.564 665.543 814.2 666.381 C 814.983 665.935 815.735 665.508 816.563 665.033 C 816.099 664.264 815.663 663.547 815.188 662.773 C 817.736 661.958 820.202 661.167 822.669 660.361 C 822.706 660.413 822.743 660.437 822.78 660.487 C 822.459 661.026 822.159 661.566 821.819 662.078 C 821.328 662.847 820.873 663.631 820.289 664.311 C 819.461 665.274 820.257 667.613 821.673 668.118 C 821.792 668.162 821.93 668.172 822.053 668.17 C 822.893 668.051 823.753 668.015 824.564 667.785 C 825.34 667.559 826.074 667.329 826.9 667.428 C 827.661 667.522 828.176 668.069 828.024 668.84 C 827.861 669.648 827.568 670.424 827.07 671.102 C 826.735 671.563 826.385 672.006 826.072 672.482 C 825.338 673.579 824.32 674.123 822.999 674.067 C 822.386 674.022 821.757 674.005 821.166 673.855 C 820.399 673.66 819.665 673.771 818.95 673.951 C 817.713 674.264 816.982 676.055 817.6 677.164 C 817.824 677.563 818.169 677.815 818.665 677.822 C 819.229 677.822 819.727 677.667 820.18 677.336 C 820.643 676.989 821.129 676.75 821.733 676.718 C 822.334 676.676 822.849 676.826 823.315 677.186 C 823.598 677.413 823.869 677.657 824.175 677.854 C 825.062 678.399 825.404 679.278 825.688 680.197 C 825.848 680.72 825.488 681.163 824.938 681.185 C 824.251 681.237 823.758 680.841 823.315 680.417 C 822.881 679.993 822.381 679.825 821.794 679.749 C 821.072 679.658 820.614 680.013 820.252 680.555 C 819.872 681.119 819.845 681.735 820.2 682.304 C 820.496 682.782 820.85 683.233 821.22 683.66 C 821.639 684.142 821.777 684.682 821.715 685.303 C 821.651 685.951 821.24 686.373 820.594 686.338 C 820.111 686.313 819.633 686.185 819.15 686.101 C 818.697 686.045 818.241 685.964 817.782 685.939 C 817.28 685.892 816.957 686.195 816.757 686.609 C 816.499 687.164 816.358 687.728 816.644 688.319 C 817.033 689.127 817.42 689.931 817.847 690.833 C 817.644 690.944 817.408 691.089 817.166 691.205 C 816.824 691.385 816.457 691.525 816.139 691.737 C 815.284 692.301 814.37 692.531 813.354 692.356 C 812.743 692.252 812.206 692.42 811.671 692.745 C 810.548 693.413 809.392 694.036 808.167 694.738 C 807.776 694.125 807.349 693.585 807.362 692.802 C 807.389 691.022 807.369 689.256 807.369 687.464 C 807.369 687.193 807.369 686.9 807.369 686.629 C 806.433 686.338 806.203 686.368 805.797 687.092 C 805.104 688.332 803.986 689.054 802.81 689.694 C 800.228 691.094 797.618 692.447 795.016 693.814 C 794.836 693.908 794.639 694.031 794.449 694.036 C 793.163 694.016 791.879 694.007 790.507 694.007 Z" style=""/>
  <path fill="blue" data-riding="Winnipeg North" d="M 824.512 640.45 C 824.8 639.896 825.047 639.425 825.315 638.91 C 826.422 639.475 827.469 639.999 828.548 640.551 C 828.386 641.113 828.134 641.542 827.75 641.902 C 827.043 642.542 826.323 643.161 825.436 643.563 C 824.805 643.851 824.17 644.159 823.8 644.802 C 823.711 644.955 823.593 645.13 823.595 645.29 C 823.605 646.451 823.778 647.54 824.795 648.318 C 825.759 649.053 826.693 649.822 827.647 650.571 C 827.765 650.662 827.92 650.711 828.058 650.778 C 828.006 650.842 827.957 650.911 827.908 650.977 C 827.151 650.864 826.395 650.76 825.641 650.64 C 824.165 650.396 822.686 650.176 821.218 649.923 C 820.747 649.839 820.266 649.676 819.843 649.459 C 815.769 647.355 811.716 645.206 807.633 643.131 C 806.467 642.533 805.24 642.052 804.023 641.549 C 800.22 640.024 796.411 638.521 792.606 637.008 C 792.37 636.912 792.14 636.803 791.916 636.705 C 791.916 630.012 791.916 623.369 791.916 616.669 C 798.84 616.669 805.733 616.669 812.704 616.669 C 812.704 619.466 812.704 622.238 812.704 625.037 C 814.106 625.747 815.454 626.437 816.903 627.171 C 815.547 629.529 814.222 631.843 812.837 634.255 C 816.72 636.318 820.579 638.363 824.512 640.45 Z" style=""/>
  <path fill="blue" data-riding="Winnipeg Centre" d="M 813.953 662.327 C 814.448 663.121 814.917 663.894 815.414 664.708 C 815.067 664.907 814.761 665.07 814.419 665.272 C 813.825 664.503 813.268 663.774 812.659 662.961 C 811.945 663.177 811.213 663.32 810.538 663.621 C 809.547 664.045 808.658 663.988 807.8 663.357 C 807.657 663.251 807.472 663.202 807.327 663.096 C 806.46 662.448 805.523 662.406 804.481 662.598 C 802.786 662.914 801.071 663.133 799.36 663.367 C 798.939 663.419 798.624 663.564 798.481 663.986 C 798.463 664.035 798.429 664.074 798.404 664.121 C 798.153 664.535 797.993 665.107 797.628 665.324 C 797.258 665.538 796.679 665.388 796.191 665.412 C 795.839 665.422 795.487 665.412 795.055 665.412 C 795.206 661.329 795.351 657.352 795.504 653.299 C 796.155 653.299 796.739 653.299 797.411 653.299 C 797.599 651.105 797.778 649.004 797.971 646.778 C 797.172 646.778 796.44 646.778 795.63 646.778 C 795.63 646.108 795.63 645.527 795.63 644.846 C 794.363 644.763 793.165 644.856 791.928 644.795 C 791.928 642.404 791.928 640.081 791.928 637.658 C 792.192 637.752 792.434 637.821 792.663 637.915 C 797.042 639.654 801.423 641.394 805.802 643.141 C 806.184 643.292 806.553 643.476 806.918 643.664 C 810.76 645.662 814.614 647.616 818.423 649.671 C 819.672 650.342 820.956 650.756 822.349 650.953 C 823.982 651.174 825.606 651.46 827.235 651.707 C 827.681 651.773 828.134 651.803 828.593 651.857 C 828.578 652.281 828.314 652.222 828.095 652.222 C 827.117 652.232 826.136 652.224 825.158 652.241 C 824.828 652.249 824.492 652.296 824.167 652.352 C 822.836 652.594 822.479 653.269 822.255 654.55 C 822.144 655.186 822.238 655.834 822.61 656.413 C 822.903 656.869 823.142 657.355 823.401 657.823 C 823.487 657.976 823.576 658.146 823.635 658.303 C 823.83 658.868 823.677 659.171 823.105 659.346 C 821.195 659.967 819.281 660.575 817.371 661.189 C 816.44 661.489 815.506 661.788 814.577 662.088 C 814.387 662.152 814.202 662.234 813.953 662.327 Z" style=""/>
  <path fill="blue" data-riding="Saskatoon—Grasswood" d="M 109.46 337.72 C 109.875 338.159 109.936 338.418 109.718 338.773 C 109.294 339.467 109.108 340.223 109.281 341.064 C 118.528 341.064 127.78 341.064 137.085 341.064 C 137.092 340.93 137.107 340.786 137.107 340.658 C 137.107 339.315 137.074 337.966 137.124 336.621 C 137.144 336.113 137.325 335.603 137.485 335.112 C 137.522 335.002 137.784 334.928 137.948 334.909 C 139.297 334.743 140.646 334.593 141.993 334.425 C 142.175 334.392 142.374 334.291 142.512 334.178 C 145.621 331.381 148.721 328.574 151.835 325.776 C 151.969 325.649 152.187 325.567 152.369 325.567 C 163.659 325.558 174.947 325.558 186.24 325.56 C 186.344 325.56 186.45 325.573 186.577 325.595 C 186.577 356.27 186.577 386.92 186.577 417.617 C 148.246 417.617 109.925 417.617 71.609 417.617 C 71.473 417.092 71.643 416.774 72.173 416.683 C 73.496 416.458 74.835 416.316 76.145 416.017 C 76.986 415.829 77.797 415.475 78.59 415.135 C 78.858 415.01 79.074 414.722 79.252 414.458 C 79.872 413.537 79.963 412.456 80.181 411.403 C 80.467 410.009 80.56 408.614 80.517 407.198 C 80.499 406.612 80.495 405.985 81.012 405.559 C 81.262 405.35 81.546 405.153 81.846 405.027 C 82.56 404.723 83.329 404.748 84.073 404.826 C 84.717 404.893 85.193 405.345 85.515 405.894 C 85.902 406.552 86.248 407.235 86.57 407.931 C 87.206 409.306 88.224 410.238 89.643 410.768 C 90.858 411.217 92.68 410.686 93.552 409.604 C 94.177 408.839 94.788 408.043 95.381 407.244 C 95.549 407.019 95.686 406.729 95.733 406.452 C 95.854 405.726 95.943 404.991 95.997 404.253 C 96.032 403.758 96.148 403.324 96.447 402.947 C 96.531 402.842 96.598 402.723 96.693 402.632 C 97.498 401.808 97.833 400.818 97.882 399.683 C 97.943 398.286 98.125 396.894 98.161 395.497 C 98.207 393.882 97.815 392.317 97.327 390.786 C 97.123 390.146 96.938 389.497 96.698 388.87 C 96.425 388.159 96.259 387.448 96.393 386.673 C 96.667 385.097 96.345 383.564 96.118 382.032 C 96.064 381.675 95.997 381.314 95.98 380.953 C 95.882 379.033 95.117 377.34 94.228 375.684 C 92.73 372.884 91.42 369.995 90.298 367.029 C 89.708 365.459 89.803 363.825 90.834 362.398 C 91.569 361.392 92.423 360.473 93.232 359.529 C 93.952 358.677 94.674 357.838 95.411 356.99 C 96.105 356.221 96.782 355.414 97.539 354.692 C 99.621 352.696 101.569 350.58 103.344 348.314 C 104.17 347.259 104.825 346.072 105.584 344.961 C 106.384 343.782 107.002 342.52 107.484 341.192 C 107.871 340.122 108.433 339.151 109.125 338.249 C 109.253 338.1 109.341 337.916 109.46 337.72 Z" style=""/>
  <path fill="blue" data-riding="Saskatoon West" d="M 107.223 298.469 C 107.223 297.163 107.223 295.901 107.223 294.614 C 107.953 294.614 108.647 294.614 109.376 294.614 C 109.437 293.89 109.562 293.198 109.545 292.498 C 109.504 291.12 110.131 290.022 110.853 288.941 C 111.512 287.953 112.405 287.216 113.311 286.463 C 114.595 285.408 115.804 284.256 117.03 283.114 C 119.453 280.887 121.868 278.652 124.29 276.408 C 124.335 276.362 124.387 276.33 124.485 276.254 C 124.485 282.725 124.485 289.136 124.485 295.592 C 125.032 295.592 125.548 295.592 126.089 295.592 C 126.089 296.191 126.089 296.761 126.089 297.386 C 125.643 297.386 125.194 297.371 124.742 297.393 C 124.547 297.399 124.335 297.429 124.16 297.507 C 122.874 298.089 121.596 298.688 120.312 299.263 C 120.076 299.377 119.97 299.507 119.923 299.758 C 118.976 304.817 118.02 309.874 117.066 314.931 C 116.783 316.421 116.507 317.924 116.212 319.405 C 116.169 319.621 116.074 319.837 115.949 320.021 C 114.883 321.597 113.802 323.178 112.727 324.752 C 112.639 324.886 112.556 325.02 112.399 325.266 C 112.937 325.379 113.406 325.545 113.882 325.558 C 115.348 325.603 116.816 325.571 118.282 325.571 C 118.426 325.571 118.573 325.571 118.757 325.571 C 118.548 327.926 117.642 329.908 116.128 331.668 C 115.441 332.472 114.889 333.424 114.424 334.384 C 114.024 335.212 113.467 335.718 112.615 335.96 C 111.968 336.139 111.322 336.336 110.667 336.455 C 109.292 336.727 108.345 337.545 107.733 338.751 C 107.184 339.839 106.706 340.959 106.211 342.076 C 105.443 343.81 104.351 345.352 103.264 346.88 C 102.168 348.422 100.946 349.877 99.677 351.28 C 98.377 352.714 96.94 354.026 95.597 355.418 C 95.052 355.989 94.598 356.638 94.049 357.328 C 94.049 354.219 94.049 351.166 94.049 348.07 C 88.832 348.07 83.673 348.07 78.476 348.07 C 78.476 346.677 78.476 345.335 78.476 343.959 C 75.805 343.959 73.172 343.959 70.497 343.959 C 70.497 341.374 70.497 338.82 70.497 336.234 C 66.815 336.234 63.177 336.234 59.499 336.234 C 59.499 331.482 59.499 326.771 59.499 322.021 C 65.89 322.021 72.277 322.021 78.705 322.021 C 78.705 320.551 78.705 319.119 78.705 317.63 C 84.616 317.63 90.486 317.63 96.371 317.63 C 96.371 314.83 96.371 312.09 96.371 309.297 C 94.388 309.297 92.421 309.297 90.434 309.297 C 90.434 307.433 90.434 305.626 90.434 303.766 C 91.764 303.766 93.076 303.766 94.427 303.766 C 94.427 303.181 94.427 302.618 94.427 301.994 C 94.607 301.994 94.747 301.994 94.89 301.994 C 96.248 301.994 97.608 302 98.968 301.976 C 99.167 301.976 99.392 301.911 99.556 301.79 C 101.091 300.755 102.615 299.684 104.15 298.651 C 104.325 298.526 104.565 298.463 104.779 298.454 C 105.569 298.456 106.362 298.469 107.223 298.469 Z" style=""/>
  <path fill="blue" data-riding="Saskatoon—University" d="M 110.003 340.202 C 110.232 339.707 110.377 339.279 110.628 338.913 C 110.892 338.522 110.902 338.228 110.626 337.878 C 110.539 337.765 110.492 337.625 110.401 337.454 C 111.205 337.238 111.964 337.041 112.729 336.838 C 113.916 336.539 114.723 335.873 115.229 334.721 C 115.661 333.733 116.228 332.799 116.999 331.999 C 117.423 331.558 117.78 331.035 118.078 330.498 C 118.658 329.461 119.187 328.38 119.406 327.184 C 119.551 326.419 119.596 325.612 119.693 324.791 C 117.722 324.791 115.806 324.791 113.791 324.791 C 113.962 324.531 114.081 324.345 114.206 324.163 C 115.069 322.899 115.938 321.632 116.792 320.36 C 116.894 320.211 116.969 320.027 117.004 319.852 C 117.812 315.615 118.615 311.377 119.417 307.137 C 119.847 304.869 120.273 302.588 120.714 300.329 C 120.742 300.195 120.872 300.015 120.999 299.953 C 122.139 299.41 123.287 298.887 124.439 298.374 C 124.591 298.309 124.774 298.273 124.943 298.268 C 125.6 298.26 126.257 298.268 126.964 298.268 C 126.964 297.503 126.954 296.768 126.973 296.024 C 126.975 295.886 127.057 295.706 127.163 295.6 C 127.868 294.908 128.605 294.238 129.306 293.54 C 129.922 292.928 130.389 292.21 130.636 291.335 C 131.148 291.335 131.652 291.335 132.208 291.335 C 132.208 292.083 132.208 292.813 132.208 293.57 C 133.587 293.345 134.91 293.127 136.274 292.902 C 136.274 293.434 136.274 293.938 136.274 294.478 C 137.518 294.478 138.724 294.478 139.972 294.478 C 139.972 295.812 139.972 297.096 139.972 298.428 C 143.926 298.428 147.833 298.428 151.783 298.428 C 151.783 299.894 151.783 301.315 151.783 302.778 C 153.165 302.778 154.503 302.778 155.891 302.778 C 155.891 303.911 155.891 305.005 155.891 306.14 C 157.121 306.14 158.302 306.14 159.534 306.14 C 159.534 307.446 159.534 308.724 159.534 310.054 C 160.898 310.054 162.211 310.054 163.553 310.054 C 163.553 314.962 163.553 319.826 163.553 324.739 C 163.406 324.739 163.251 324.739 163.095 324.739 C 159.448 324.739 155.802 324.741 152.155 324.734 C 151.856 324.734 151.627 324.808 151.4 325.013 C 148.304 327.83 145.197 330.637 142.088 333.437 C 141.969 333.545 141.794 333.62 141.636 333.642 C 140.155 333.826 138.672 334.001 137.189 334.161 C 136.932 334.191 136.85 334.299 136.759 334.533 C 136.367 335.484 136.212 336.47 136.266 337.523 C 136.311 338.418 136.274 339.32 136.274 340.241 C 127.533 340.202 118.833 340.202 110.003 340.202 Z" style=""/>
  <path fill="blue" data-riding="Cypress Hills—Grasslands" d="M 190.973 589.069 C 193.133 581.377 195.401 573.714 197.435 565.993 C 205.665 534.769 213.823 503.526 222.014 472.292 C 222.224 471.492 222.512 470.729 222.922 469.419 C 238.151 472.885 253.343 476.346 268.732 479.842 C 268.216 482.604 267.766 485.028 267.248 487.812 C 275.942 489.834 284.506 491.824 293.301 493.866 C 293.104 495.691 292.927 497.315 292.691 499.451 C 298.467 500.56 304.276 501.686 310.088 502.782 C 311.733 503.091 313.459 503.103 315.028 503.625 C 316.162 503.981 317.728 504.748 318.031 505.677 C 320.902 514.485 320.365 512.023 328.975 515.891 C 327.402 524.456 325.815 533.129 324.176 542.076 C 331.773 543.544 339.12 544.994 346.876 546.507 C 345.022 557.259 344.106 567.983 341.118 578.094 C 339 585.272 340.534 592.594 338.299 599.576 C 338.116 600.145 340.45 602.023 341.879 602.496 C 344.417 603.314 346.612 604.144 347.056 607.422 C 344.66 608.135 341.421 607.883 341.816 611.975 C 340.722 611.715 340.079 611.533 339.422 611.415 C 338.341 611.251 337.248 611.148 336.159 611.023 C 336.307 612.084 336.439 613.156 336.606 614.205 C 336.693 614.768 337.133 615.646 336.927 615.828 C 334.132 618.297 336.078 621.509 335.498 624.302 C 335.018 624.302 334.539 624.302 334.059 624.302 C 333.649 624.091 333.26 623.775 332.825 623.678 C 298.853 616.248 264.852 608.923 230.919 601.307 C 217.521 598.299 204.277 594.605 190.969 591.225 C 190.973 590.503 190.973 589.788 190.973 589.069 Z" style=""/>
  <path fill="blue" data-riding="Battlefords—Lloydminster" d="M 254.246 357.536 C 263.599 359.92 272.95 362.326 282.3 364.708 C 285.17 365.424 288.047 366.144 291.064 366.893 C 290.878 368.603 290.728 370.008 290.542 371.743 C 291.945 372.225 293.478 372.752 295.081 373.303 C 295.081 374.589 295.081 375.739 295.081 377.225 C 298.176 377.942 301.235 378.651 305.223 379.572 C 301.766 380.878 301.091 382.774 301.085 385.641 C 301.082 387.768 301.591 388.445 303.35 388.799 C 306.726 389.476 310.101 390.168 313.827 390.926 C 312.269 399.078 310.763 406.976 309.223 415.051 C 307.643 414.865 306.376 414.733 304.92 414.568 C 303.719 420.269 302.544 425.845 301.336 431.576 C 300.076 431.274 299.057 431.028 297.643 430.686 C 296.828 434.183 296.028 437.61 295.219 441.055 C 293.838 440.492 292.675 439.999 291.073 439.331 C 290 443.809 288.993 448.007 287.939 452.407 C 285.326 451.029 283.166 449.885 280.362 448.404 C 279.185 453.415 278.136 457.873 277.087 462.333 C 273.019 460.596 273.015 460.596 272.018 465.095 C 271.065 469.401 270.121 473.706 269.084 478.395 C 253.811 474.923 238.721 471.48 223.213 467.966 C 232.881 431.007 242.486 394.264 252.095 357.551 C 252.807 357.536 253.529 357.536 254.246 357.536 Z" style=""/>
</svg>